<?xml version="1.0" standalone="no"?>
<!DOCTYPE svg PUBLIC "-//W3C//DTD SVG 20010904//EN"
 "http://www.w3.org/TR/2001/REC-SVG-20010904/DTD/svg10.dtd">
<svg version="1.0" xmlns="http://www.w3.org/2000/svg"
 width="400.000000pt" height="667.000000pt" viewBox="0 0 400.000000 667.000000"
 preserveAspectRatio="xMidYMid meet">
<metadata>
Created by potrace 1.16, written by Peter Selinger 2001-2019
</metadata>
<g transform="translate(0.000000,667.000000) scale(0.100000,-0.100000)"
fill="#000000" stroke="none">
<path d="M0 3335 l0 -3335 913 1 c501 1 901 5 887 9 -14 4 -45 9 -70 9 -25 1
-51 5 -59 10 -9 6 26 11 95 16 60 3 116 8 124 9 14 3 -195 10 -212 7 -5 0 -8
3 -8 9 0 6 35 11 83 11 l82 2 -90 12 c-82 11 -85 12 -40 15 49 3 49 3 -25 13
l-75 11 78 7 c43 4 81 9 84 13 7 6 -54 11 -95 7 -14 -1 -21 2 -18 8 4 5 -2 12
-11 14 -17 4 -17 5 0 6 9 0 17 6 17 11 0 6 17 11 38 11 25 1 13 5 -38 13 -61
9 -68 11 -37 14 20 2 35 7 32 13 -4 5 14 9 39 9 64 0 58 20 -6 22 -53 1 -53 2
-8 5 25 1 74 6 110 10 55 5 60 8 35 14 l-30 7 33 1 c17 0 32 6 32 11 0 6 15
11 33 12 17 0 -31 7 -108 13 -98 8 -123 13 -85 15 50 2 52 3 20 9 -29 6 -22 8
45 15 125 11 127 13 15 16 -75 2 -95 5 -70 10 l35 7 -30 3 c-85 6 -106 10
-122 19 -14 8 -3 11 47 12 75 1 50 15 -35 20 l-50 2 65 7 c36 4 53 7 38 8 -31
2 -37 16 -12 26 9 3 43 6 77 7 34 0 85 4 112 9 l50 7 -46 2 c-25 0 -68 4 -95
8 l-49 7 60 12 c33 7 48 12 33 13 -16 1 -28 6 -28 11 0 6 -28 11 -62 11 l-63
2 58 7 c82 10 82 20 1 21 -38 1 -55 4 -39 7 26 4 28 5 10 12 -16 7 -12 9 18 9
45 1 41 21 -4 21 -16 0 -29 5 -29 10 0 6 15 10 34 10 19 0 38 5 41 10 3 6 -3
10 -14 10 -11 0 -22 4 -25 9 -12 19 23 30 119 39 l100 9 -80 3 c-44 1 -114 6
-155 10 l-75 7 100 2 c55 1 94 5 88 8 -28 11 -10 23 35 24 100 1 86 16 -23 23
-103 7 -240 25 -233 31 7 7 90 14 173 16 82 2 86 2 40 9 -27 5 -75 9 -105 11
-47 2 -39 4 50 13 l105 12 -75 11 c-59 8 -66 11 -35 12 76 4 85 20 12 20 l-68
1 27 25 c15 14 23 26 18 26 -17 3 91 17 146 20 l55 2 -65 8 c-36 4 -87 12
-115 17 l-50 8 60 8 c86 11 89 14 15 16 -91 3 -135 18 -55 19 66 1 117 20 55
21 -26 0 -31 3 -20 10 11 7 -1 10 -42 10 -31 0 -60 5 -63 10 -4 6 15 10 50 10
35 0 54 4 50 10 -3 5 3 10 15 10 12 0 18 5 15 10 -4 6 10 10 34 10 23 0 41 5
41 10 0 6 -10 10 -22 10 -13 0 -32 7 -42 15 -12 9 -45 16 -80 17 -35 1 -47 3
-28 5 17 2 32 8 32 14 0 5 19 9 43 9 23 0 48 4 56 9 8 5 -24 12 -85 17 -55 5
-83 10 -64 12 19 2 39 8 44 13 6 5 39 10 75 10 l66 2 -50 7 c-27 5 -79 9 -115
10 -62 2 -64 2 -36 14 20 9 25 15 15 19 -9 4 -8 6 6 7 11 1 65 9 120 19 l100
18 -80 8 c-44 5 -91 9 -105 10 -14 2 -31 3 -37 4 -7 0 -13 7 -13 15 0 8 6 17
13 19 9 4 9 7 0 14 -7 5 -10 18 -7 30 5 17 16 21 66 27 34 3 79 6 102 6 69 0
19 20 -54 21 -36 0 -76 4 -90 8 -26 8 -12 12 95 24 19 3 12 5 -20 6 -80 4
-102 19 -28 20 87 1 92 21 6 22 -37 0 -77 4 -88 9 -17 7 -17 9 -3 9 11 1 15 6
12 15 -4 11 17 15 103 22 59 4 99 9 88 11 -11 2 -27 7 -35 11 -22 9 -29 10
-92 11 -38 1 -57 5 -55 13 1 6 -9 15 -23 19 -21 6 -18 7 17 8 23 1 44 5 47 10
4 5 -4 7 -16 4 -13 -3 -20 -2 -16 2 4 4 51 13 105 20 68 9 84 13 52 14 -105 2
-204 15 -179 22 21 6 20 7 -13 8 -23 1 -36 5 -32 11 4 6 10 8 15 5 5 -3 19 -1
30 5 12 6 40 15 63 20 l42 8 -37 1 c-52 1 -60 21 -9 21 23 0 41 5 41 10 0 6
15 10 33 10 57 0 8 20 -53 21 -116 1 -94 16 35 24 144 9 146 10 30 21 -57 5
-73 9 -55 14 25 7 25 7 -5 12 -16 3 22 6 85 8 94 2 107 4 70 11 -25 4 -76 8
-115 10 l-70 2 80 12 80 12 -73 2 c-54 1 -73 4 -70 14 3 8 36 14 92 19 96 7
125 17 55 19 l-44 1 35 11 c33 11 30 12 -48 15 -49 2 -80 7 -77 12 4 6 -21 11
-62 12 l-68 1 60 7 c41 5 49 7 25 8 -27 2 -31 5 -20 12 8 5 22 7 32 4 9 -2 19
0 23 6 3 5 0 11 -7 11 -7 1 3 5 22 9 l35 7 -40 2 c-30 2 -35 4 -20 10 19 8 19
8 0 19 -11 6 -17 12 -12 13 4 1 12 3 17 4 6 1 25 4 43 5 24 2 15 5 -33 13
l-65 11 40 7 40 6 -42 2 c-35 1 -43 5 -43 19 0 19 -34 66 -43 60 -3 -2 -9 0
-13 4 -4 5 22 8 57 9 35 0 84 4 109 8 l45 7 -38 17 c-21 9 -36 21 -33 26 4 5
0 12 -6 14 -7 3 12 6 42 8 37 1 45 3 25 7 -26 4 -28 5 -10 12 16 7 12 9 -17 9
-62 1 -43 20 25 24 41 2 24 4 -53 6 -75 2 -106 6 -90 11 22 7 22 8 5 10 -41 5
40 18 120 20 106 2 71 18 -45 20 -125 2 -145 16 -35 24 50 4 106 11 125 15 29
7 20 9 -50 11 -47 1 -105 5 -130 9 -38 6 -26 8 75 15 139 8 171 13 99 15 -28
0 -79 4 -114 8 l-63 6 49 13 c27 7 67 14 89 15 34 2 31 3 -20 9 l-60 7 70 3
70 4 -70 6 c-48 4 -57 7 -30 8 22 1 51 5 65 9 l25 7 -30 7 c-23 5 -14 7 35 9
56 2 60 4 30 10 -19 4 -29 8 -22 9 30 3 8 19 -35 25 -109 14 -154 23 -165 34
-9 9 -9 12 3 13 7 0 23 2 34 4 11 2 39 5 63 6 60 4 52 15 -14 22 -73 8 -95 26
-33 28 l44 2 -35 7 c-34 7 -33 7 15 10 28 1 64 6 80 9 30 7 30 7 -13 15 -23 4
-40 11 -37 16 8 13 -22 20 -86 20 -32 0 -59 4 -59 9 0 9 72 21 127 21 20 0 32
4 28 10 -3 6 -26 10 -50 10 -24 0 -50 3 -59 6 -31 12 10 34 63 34 48 0 67 12
39 23 -7 3 6 6 30 6 40 1 61 19 25 23 -10 1 11 4 47 8 60 6 57 7 -45 9 -60 1
-130 6 -155 10 l-45 8 65 3 c36 1 79 6 95 10 l30 8 -35 2 c-19 1 -51 8 -70 15
l-35 13 55 2 c41 2 49 4 30 9 -21 7 -17 9 28 15 28 4 52 12 52 17 0 5 -3 8 -7
8 -20 -3 -34 2 -28 11 3 6 21 10 38 11 l32 1 -33 8 c-58 14 -48 20 34 22 54 1
21 5 -106 13 -109 7 -158 13 -120 14 66 3 170 17 137 20 -10 0 -15 6 -12 11 3
6 34 10 67 10 78 0 69 10 -19 21 -37 5 -97 15 -133 23 l-65 14 90 2 c55 2 77
5 55 9 -33 5 -32 5 17 11 78 8 55 29 -43 38 l-79 8 80 8 c44 4 91 11 105 16
22 7 21 9 -15 10 -98 3 -132 19 -70 33 19 5 19 5 -2 12 -12 4 -24 13 -27 21
-5 14 43 20 128 17 21 -1 25 1 15 8 -8 5 -43 10 -79 11 l-65 2 80 6 80 6 -75
3 c-52 2 -69 5 -55 11 19 8 19 9 -2 9 -12 1 -25 6 -28 11 -4 6 18 10 60 10 43
0 71 5 80 14 12 11 6 14 -38 20 -29 3 -74 6 -102 6 -27 0 -57 5 -65 10 -13 8
-12 10 3 10 9 0 17 5 17 10 0 6 38 11 93 11 l92 2 -115 9 c-63 4 -131 12 -150
17 l-35 9 32 1 c70 2 90 37 26 44 -31 3 -27 4 16 5 46 2 52 4 41 17 -10 12 -9
15 6 16 11 0 1 6 -21 14 l-40 13 35 2 35 3 -35 7 c-30 6 -31 8 -8 9 43 2 128
24 128 33 0 4 -17 8 -37 9 -21 0 -47 4 -58 9 -16 7 -10 9 25 11 l45 1 -54 8
c-89 13 -81 27 21 36 l93 8 -140 11 -140 11 115 6 c63 4 135 11 160 16 41 9
38 10 -45 11 -49 1 -96 5 -104 10 -27 17 1 31 67 32 52 1 60 3 37 9 -16 4 -48
9 -70 10 -22 1 -32 4 -22 7 9 2 15 9 12 14 -4 5 -1 9 4 9 6 0 11 -6 11 -12 0
-10 2 -10 8 -2 4 7 18 14 32 17 16 3 10 5 -17 6 -67 2 -50 21 20 23 l62 2 -75
5 -75 6 55 7 c30 4 100 11 155 15 l100 7 -103 7 c-56 3 -121 11 -145 17 -23 6
-51 13 -62 15 -11 2 11 4 49 5 37 0 70 3 72 5 3 2 -36 8 -86 11 -50 4 -88 11
-85 16 3 5 -12 11 -32 13 -29 3 -23 4 22 6 112 5 167 10 173 15 3 3 -21 6 -53
6 -84 0 -57 21 34 28 49 3 71 9 71 18 0 8 16 14 43 16 24 2 -4 7 -68 11 -60 5
-116 10 -122 12 -22 7 -14 25 10 25 19 1 19 2 -8 15 -16 7 -24 14 -17 14 22 2
12 19 -15 27 l-28 7 30 7 c17 4 59 9 95 10 l65 3 -50 7 c-27 4 -40 8 -27 8 12
1 22 7 22 13 0 5 -4 8 -8 5 -4 -2 -14 -1 -22 5 -10 5 22 9 90 10 l105 1 -65
13 c-36 8 -92 17 -125 21 l-60 8 40 7 40 6 -44 2 c-75 2 -37 13 71 21 l103 7
-80 3 c-57 1 -73 4 -55 10 18 6 4 9 -50 10 -75 3 -75 3 -25 10 28 5 82 9 120
10 89 2 51 15 -80 26 -89 8 -89 8 -40 15 28 4 85 12 128 17 79 10 114 22 61
22 -16 0 -87 5 -159 12 -121 12 -126 13 -75 19 30 4 89 8 130 10 l75 2 -60 7
c-53 5 -57 7 -30 14 17 4 41 12 55 17 14 5 59 13 100 18 66 7 69 9 26 10 -51
1 -54 16 -6 23 14 2 -40 7 -119 10 -79 4 -146 10 -149 13 -11 11 22 25 63 26
73 1 86 18 15 18 -86 2 -60 20 30 22 l65 2 -65 10 -65 11 50 12 c28 7 70 13
95 14 39 2 33 4 -40 16 -47 7 -105 14 -130 14 -65 2 -22 18 49 19 62 1 64 12
2 13 -57 1 -52 18 7 19 26 0 65 4 87 8 39 7 39 7 -27 15 -38 4 -68 12 -68 17
0 5 5 9 12 9 24 0 -26 39 -56 43 -17 2 5 5 49 7 72 3 76 4 35 10 l-45 7 49 1
c68 3 49 16 -32 23 -49 4 -61 8 -45 14 13 4 20 12 16 18 -3 6 -1 7 6 3 6 -4 9
-12 6 -17 -4 -5 1 -9 9 -9 9 0 16 7 16 15 0 10 18 16 63 22 l62 7 -55 7 c-30
4 -82 8 -115 9 -75 3 -57 7 70 16 90 6 96 8 60 16 -43 9 -69 27 -44 30 7 1
-15 4 -51 7 l-65 6 95 11 c78 9 85 11 43 13 -29 0 -53 5 -53 11 0 10 18 15 80
24 19 3 53 9 75 14 37 9 35 10 -35 11 -118 2 -217 13 -195 22 17 6 15 8 -10 9
-30 2 -30 2 -5 10 14 4 19 8 13 9 -7 1 -13 6 -13 11 0 6 28 10 63 11 34 1 73
5 87 9 20 7 16 8 -25 10 l-50 2 55 13 c30 7 45 13 33 14 -12 0 -25 6 -28 11
-3 6 -23 11 -43 11 -26 1 -18 4 27 10 72 9 92 19 38 19 -20 0 -37 5 -37 10 0
6 -12 11 -27 11 -55 2 49 18 127 19 92 2 68 14 -43 23 -103 9 -136 26 -49 27
34 0 62 4 62 10 0 6 -36 10 -87 10 -54 1 -97 6 -112 14 -23 12 -17 14 67 21
89 7 138 25 68 25 -19 0 -41 3 -50 6 -31 12 -16 24 30 24 27 0 43 4 39 10 -3
6 -30 10 -58 11 -29 0 -70 4 -92 8 l-40 8 59 8 c32 4 53 11 46 15 -12 7 4 13
85 29 36 8 33 9 -35 11 -41 1 -102 6 -135 10 l-60 7 48 3 c26 2 57 4 70 4 12
1 24 4 27 8 3 3 32 11 65 16 59 9 59 10 -50 12 l-110 3 74 9 c76 10 82 27 11
29 -19 0 -46 4 -60 8 -15 4 38 10 130 15 85 4 157 9 159 12 11 11 -16 16 -140
23 -76 5 -107 9 -71 10 34 0 62 5 62 11 0 5 33 11 73 13 l72 3 -90 3 c-73 3
-83 5 -50 11 34 6 28 8 -40 10 -44 2 -66 5 -50 7 17 2 39 8 50 13 11 5 45 11
75 13 32 2 10 4 -50 6 -69 2 -98 5 -85 11 14 6 -3 9 -54 9 -123 1 -72 13 81
18 79 3 145 7 147 9 2 2 -36 4 -85 5 -102 1 -152 13 -94 22 19 4 71 10 115 14
l80 8 -105 5 -105 5 65 14 c84 18 97 31 34 33 l-49 1 60 7 60 7 -80 3 -80 3
60 6 c159 16 -65 21 -861 21 l-854 0 0 -3335z"/>
<path d="M2305 6660 c-22 -4 -31 -8 -20 -9 l20 -2 -20 -9 c-11 -5 -36 -7 -55
-4 -19 2 -28 1 -20 -2 8 -3 22 -8 30 -11 10 -4 5 -9 -15 -13 -29 -7 -28 -8 10
-9 110 -4 113 -31 3 -31 -105 0 -94 -11 19 -19 56 -4 88 -10 91 -18 2 -9 -11
-13 -45 -14 -33 -1 -21 -4 42 -10 94 -9 129 -17 83 -18 -16 -1 -28 -5 -28 -11
0 -6 -39 -10 -97 -10 -69 -1 -93 -4 -81 -10 9 -6 41 -11 71 -11 93 -2 90 -19
-3 -20 -55 0 -78 -3 -65 -9 16 -6 10 -9 -25 -12 -36 -4 -30 -5 30 -8 52 -2 64
-5 40 -8 l-35 -6 40 -6 c32 -6 25 -7 -37 -9 -42 0 -80 -5 -83 -11 -3 -5 -16
-11 -28 -12 -36 -2 101 -15 188 -18 71 -2 75 -3 40 -11 -22 -4 -58 -8 -80 -8
l-40 -1 29 -15 c15 -8 51 -16 80 -17 l51 -1 -45 -4 c-56 -5 -78 -23 -30 -24
32 -1 33 -2 10 -9 -20 -6 -13 -8 30 -10 91 -3 20 -18 -100 -20 -102 -2 -104
-3 -60 -14 25 -7 59 -18 75 -25 17 -7 46 -15 65 -17 50 -7 48 -12 -7 -19 -26
-3 -66 -9 -88 -14 -34 -7 -27 -9 50 -11 l90 -2 -89 -14 c-49 -7 -91 -16 -93
-18 -3 -3 12 -8 33 -11 102 -17 118 -21 122 -33 3 -11 -72 -18 -130 -13 -10 1
-18 -3 -18 -8 0 -6 21 -11 48 -12 26 0 65 -4 87 -8 33 -6 19 -9 -75 -15 -63
-4 -131 -10 -150 -14 -31 -6 -27 -8 35 -13 39 -4 86 -12 105 -18 l35 -10 -33
3 c-43 4 -27 -11 18 -17 l35 -4 -40 -3 c-38 -3 -38 -4 15 -10 l55 -7 -60 -2
c-56 -2 -59 -3 -40 -17 19 -15 19 -15 -10 -10 -24 5 -26 4 -10 -3 11 -5 36
-10 55 -11 35 -1 35 -1 10 -13 -23 -11 -20 -12 33 -15 33 -2 55 -7 52 -13 -4
-5 -15 -9 -26 -9 -10 0 -19 -4 -19 -10 0 -5 8 -9 18 -7 9 1 18 -2 20 -8 1 -5
-8 -11 -20 -11 -110 -6 -220 -18 -223 -24 -3 -5 28 -11 68 -15 39 -3 86 -9
102 -12 l30 -6 -25 -8 c-14 -4 -52 -8 -85 -9 l-60 -3 50 -7 c28 -5 88 -10 135
-11 80 -3 81 -3 20 -6 -96 -4 -137 -13 -119 -24 9 -6 0 -9 -31 -9 -67 0 -82
-16 -18 -19 29 -2 85 -6 123 -10 l70 -8 -60 -3 c-33 -1 -85 -5 -115 -10 l-55
-7 65 -3 c75 -3 194 -16 165 -19 -15 -1 -17 -3 -7 -10 19 -12 -8 -21 -66 -22
-79 -1 -97 -17 -22 -20 l65 -2 -50 -7 -50 -7 57 -1 c76 -3 81 -18 11 -33 -53
-12 -55 -13 -28 -19 l30 -6 -40 -12 c-22 -7 -55 -12 -74 -12 -71 0 -20 -11 80
-16 57 -4 105 -8 107 -9 2 -2 -30 -7 -70 -13 l-73 -9 65 -3 c112 -4 125 -16
25 -23 -49 -3 -110 -10 -135 -14 -42 -8 -40 -9 50 -16 52 -3 111 -10 130 -14
32 -7 28 -8 -45 -19 l-80 -11 55 -2 c30 -2 75 -6 100 -10 42 -8 39 -9 -32 -10
-42 0 -80 -5 -83 -11 -3 -5 4 -11 17 -11 13 -1 28 -2 33 -4 6 -1 19 -3 29 -3
14 -2 17 -5 10 -12 -6 -6 -73 -14 -150 -17 -125 -6 -136 -8 -109 -19 29 -13
30 -13 5 -15 -34 -2 42 -17 95 -19 32 -1 36 -3 20 -10 -15 -6 -6 -9 33 -9 69
-1 59 -21 -11 -22 l-52 -2 63 -7 c34 -4 65 -9 67 -12 3 -3 -26 -10 -65 -17
-72 -13 -85 -25 -32 -29 16 -1 47 -8 68 -16 l39 -13 -75 -12 c-41 -7 -82 -13
-90 -15 -8 -1 26 -6 75 -10 114 -9 133 -13 70 -15 -36 -1 -46 -4 -35 -11 11
-7 -7 -10 -60 -12 l-75 -2 68 -3 c68 -4 90 -18 40 -26 -16 -2 19 -5 77 -7
l105 -2 -130 -14 c-71 -7 -152 -17 -180 -22 -48 -9 -46 -10 45 -12 69 -2 84
-5 55 -9 l-40 -6 40 -8 c22 -4 60 -8 85 -9 36 -1 31 -3 -25 -8 l-70 -6 65 -3
c36 -1 85 -6 110 -10 44 -8 44 -9 -25 -11 -43 -2 -56 -5 -35 -7 19 -3 40 -9
45 -14 7 -7 5 -9 -5 -7 -8 2 -14 -3 -12 -9 1 -9 -15 -13 -55 -13 -58 0 -58 0
-29 -15 15 -8 51 -16 80 -17 59 -1 33 -5 -114 -13 -92 -6 -106 -9 -107 -24 -1
-16 10 -19 90 -24 51 -2 101 -8 112 -13 17 -7 15 -10 -20 -20 -35 -11 -36 -13
-12 -13 26 -1 40 -20 15 -22 -7 0 -4 -4 7 -9 13 -6 -9 -9 -70 -11 -49 -1 -79
-3 -65 -6 14 -2 43 -9 64 -15 37 -12 38 -13 15 -19 -13 -4 -69 -8 -124 -9
-119 -3 -87 -16 45 -20 47 -1 108 -5 135 -10 l50 -7 -45 -2 c-30 -2 -39 -5
-27 -10 17 -6 16 -8 -7 -21 -32 -17 -18 -29 34 -31 19 -1 -5 -7 -55 -13 l-90
-12 75 -9 c74 -8 75 -8 35 -17 -22 -5 -65 -12 -95 -17 l-55 -7 100 -13 c134
-17 152 -30 45 -32 l-85 -2 75 -8 c89 -11 108 -17 60 -19 l-35 -2 30 -8 c25
-6 22 -8 -24 -9 -30 0 -51 -4 -48 -8 11 -10 -13 -32 -29 -26 -8 3 -14 1 -14
-5 0 -5 28 -15 62 -21 69 -12 101 -31 53 -31 -23 0 -27 -3 -15 -10 12 -8 10
-10 -10 -10 -20 0 -22 -2 -10 -10 8 -5 26 -10 40 -11 20 -1 18 -3 -10 -9 -32
-7 -30 -7 19 -9 63 -1 63 -8 0 -20 -44 -8 -41 -13 16 -26 l30 -8 -30 -8 c-16
-5 -56 -11 -90 -15 -82 -8 -82 -14 1 -16 56 -1 61 -2 24 -6 l-45 -5 50 -12 50
-13 -90 -2 c-98 -2 -217 -16 -157 -19 19 0 31 -5 27 -11 -4 -6 11 -10 37 -11
24 -1 54 -5 68 -9 l25 -8 -25 -2 c-24 -2 -23 -3 5 -10 22 -5 5 -8 -60 -10 -68
-2 -82 -4 -55 -10 19 -4 27 -8 18 -9 -9 0 -19 -5 -22 -10 -3 -4 29 -9 72 -10
42 -1 81 -6 87 -12 5 -5 -3 -9 -23 -9 -17 0 -55 -5 -84 -12 l-53 -12 50 -7
c28 -4 72 -8 99 -8 77 -1 45 -18 -39 -21 l-40 -1 34 -14 c18 -8 59 -16 90 -16
l56 -2 -50 -7 c-27 -5 -79 -9 -115 -11 -38 -1 -53 -4 -35 -7 26 -4 28 -5 10
-12 -14 -6 -4 -9 35 -11 l55 -2 -45 -7 -45 -7 40 -3 c22 -1 54 -6 70 -10 29
-7 29 -8 5 -10 -14 -1 -36 -4 -49 -5 -13 -1 -27 -9 -32 -16 -7 -12 -9 -11 -9
1 0 10 -3 11 -8 3 -4 -6 -21 -13 -37 -16 -18 -2 -6 -5 28 -6 31 0 57 -5 57
-10 0 -5 10 -12 23 -14 18 -4 17 -5 -8 -7 -25 -3 -22 -4 15 -9 36 -6 17 -9
-90 -16 -91 -7 -117 -11 -80 -13 53 -3 96 -21 55 -23 -12 0 -7 -5 12 -10 18
-5 32 -15 30 -21 -1 -7 14 -15 33 -18 36 -7 29 -15 -20 -23 -14 -2 20 -5 75
-7 107 -3 94 -16 -20 -20 -114 -4 -116 -16 -5 -25 91 -7 100 -9 65 -16 -22 -4
-85 -9 -140 -9 -84 -2 -94 -4 -65 -12 19 -5 80 -15 135 -22 55 -7 84 -14 65
-15 -19 -1 -53 -4 -75 -8 l-40 -7 50 -8 c28 -4 72 -11 98 -14 68 -9 40 -23
-48 -25 -122 -2 -131 -15 -17 -24 108 -8 130 -18 60 -28 -75 -11 -188 -34
-194 -39 -3 -3 46 -9 108 -14 74 -5 104 -10 88 -14 -24 -7 -24 -8 10 -16 29
-6 31 -8 15 -15 -11 -4 -34 -8 -52 -8 -17 -1 -35 -5 -38 -11 -3 -5 -25 -11
-48 -11 -33 -1 -28 -3 25 -9 87 -11 122 -29 58 -31 -40 -1 -42 -2 -15 -8 21
-5 1 -9 -66 -13 -105 -6 -145 -18 -94 -29 17 -4 50 -7 74 -8 54 -1 51 -8 -7
-14 -53 -5 -66 -17 -21 -18 l34 -2 -40 -7 c-31 -6 -18 -8 60 -10 l100 -4 -70
-6 c-43 -4 -56 -7 -35 -9 47 -4 94 -11 99 -17 10 -10 -12 -15 -105 -21 -92 -7
-95 -8 -49 -14 28 -4 73 -8 100 -9 l50 -2 -40 -9 c-22 -4 -67 -9 -100 -10
l-60 -1 55 -9 c121 -19 127 -21 105 -29 -11 -5 -50 -9 -87 -9 -37 -1 -70 -5
-73 -11 -4 -6 17 -10 57 -10 35 0 87 -3 116 -7 l54 -6 -39 -13 c-21 -8 -76
-14 -123 -15 l-85 -2 60 -7 c33 -4 87 -9 120 -11 l60 -3 -80 -6 c-64 -5 -71
-7 -35 -10 l45 -3 -60 -7 -60 -7 80 -3 80 -3 -57 -6 -56 -6 19 -23 c15 -19 36
-27 101 -37 46 -7 68 -13 51 -14 -18 0 -33 -5 -33 -11 0 -5 15 -11 33 -11 26
-1 27 -2 7 -6 -63 -10 -74 -14 -59 -24 9 -6 -3 -9 -41 -11 l-55 -1 60 -7 c40
-4 50 -8 30 -10 -16 -2 -38 -3 -47 -2 -10 1 -18 -3 -18 -8 0 -6 -21 -10 -47
-10 -64 0 -43 -21 29 -28 43 -4 48 -7 30 -13 -13 -5 -20 -13 -17 -19 4 -6 -8
-11 -27 -12 -29 -1 -28 -2 12 -8 l45 -7 -55 -2 c-66 -3 -58 -8 35 -20 l70 -8
-70 -3 c-67 -3 -68 -3 -25 -10 29 -4 35 -8 18 -8 -15 -1 -30 -6 -33 -12 -3 -5
-30 -10 -58 -10 -37 0 -48 -3 -37 -10 8 -5 29 -10 45 -11 26 -2 25 -3 -10 -8
-37 -6 -35 -7 35 -15 41 -5 69 -11 62 -13 -6 -3 -10 -9 -6 -14 3 -5 -25 -10
-63 -10 -76 -2 -65 -6 52 -18 l80 -8 -110 -2 c-60 -1 -117 -6 -125 -11 -10 -7
16 -10 83 -10 63 0 96 -4 92 -10 -3 -5 -1 -10 5 -10 6 0 8 -4 5 -10 -3 -5 -41
-11 -83 -12 l-77 -1 65 -7 c36 -4 110 -9 165 -10 l100 -3 -80 -9 c-44 -4 -114
-12 -155 -17 l-75 -8 62 -2 c34 0 65 -6 68 -11 3 -5 30 -10 58 -11 72 -1 32
-17 -48 -20 l-60 -2 75 -8 c90 -10 115 -16 77 -18 -16 0 -26 -5 -22 -11 4 -6
-6 -11 -22 -11 -26 -2 -25 -2 7 -9 34 -7 33 -7 -15 -10 -27 -1 -63 -6 -80 -10
l-30 -8 35 -2 c19 -1 46 -1 58 0 13 1 32 -7 41 -17 17 -17 17 -19 -8 -30 l-26
-11 33 -1 c64 -2 30 -16 -45 -19 -43 -2 -80 -7 -83 -12 -3 -4 -14 -10 -25 -13
-11 -2 0 -5 25 -6 45 -2 133 -11 137 -15 1 -1 0 -12 -4 -24 -4 -18 -12 -22
-49 -22 -60 0 -56 -20 4 -21 l47 -1 -40 -9 c-22 -4 -60 -8 -85 -9 -61 -2 -39
-9 56 -18 l79 -8 -80 -7 c-140 -13 -152 -22 -41 -30 54 -4 106 -12 115 -17 9
-5 11 -10 5 -10 -5 0 -19 -9 -31 -19 -11 -11 -31 -21 -44 -24 -15 -2 -7 -5 19
-6 23 0 42 -5 42 -11 0 -5 -3 -10 -7 -10 -10 0 -141 -19 -172 -25 -37 -7 -38
-15 0 -15 19 0 59 -3 89 -7 45 -5 50 -8 30 -14 -19 -5 -14 -7 25 -9 43 -2 46
-3 20 -9 l-30 -7 35 -9 c32 -8 28 -9 -42 -14 -42 -3 -79 -9 -83 -12 -3 -4 27
-10 67 -15 58 -6 68 -9 48 -15 -17 -6 -7 -7 30 -4 38 2 47 1 30 -5 -14 -4 -61
-9 -105 -10 -66 -1 -75 -3 -50 -11 17 -5 38 -7 48 -5 9 2 17 0 17 -5 0 -5 15
-9 33 -9 24 0 28 -3 17 -10 -8 -5 -27 -10 -42 -10 -14 0 -28 -5 -30 -11 -2 -5
-38 -13 -80 -18 -43 -4 -80 -9 -83 -13 -3 -3 43 -9 102 -13 103 -7 107 -8 73
-21 l-35 -12 35 -3 c31 -2 32 -2 8 -6 -31 -5 -37 -19 -10 -26 9 -3 -4 -5 -30
-6 -26 0 -50 -6 -53 -11 -4 -6 -3 -10 2 -9 4 1 25 1 46 0 41 -1 50 -17 15 -24
l-23 -4 23 -2 c12 0 22 -5 22 -10 0 -10 -58 -21 -112 -21 -75 0 -45 -18 39
-25 131 -9 144 -12 78 -15 l-60 -2 55 -9 c30 -5 57 -13 60 -18 3 -4 12 -11 20
-14 8 -3 -30 -6 -84 -6 -55 -1 -97 -3 -95 -5 7 -7 60 -14 113 -15 67 -1 55 -8
-29 -16 -38 -3 -72 -8 -74 -11 -4 -4 84 -9 127 -6 12 0 22 -3 22 -9 0 -5 -30
-9 -67 -10 -110 -2 -133 -17 -28 -18 82 -1 128 -11 114 -25 -3 -4 -66 -11
-140 -17 -74 -6 -135 -12 -137 -14 -2 -2 27 -6 65 -10 87 -8 107 -16 68 -25
-26 -7 -23 -8 19 -9 73 -2 51 -10 -50 -19 l-89 -8 133 -8 c81 -5 129 -12 120
-17 -7 -5 -8 -9 -3 -9 6 -1 -3 -7 -20 -14 -25 -12 -27 -15 -12 -21 29 -12 19
-25 -20 -25 -52 0 -73 -14 -45 -29 11 -6 28 -11 37 -11 9 0 14 -4 10 -10 -3
-5 -12 -7 -19 -4 -8 3 -17 1 -21 -5 -3 -6 1 -11 9 -11 8 0 17 -4 20 -9 3 -5
-31 -13 -77 -19 -74 -8 -77 -9 -32 -12 28 -1 64 -6 80 -10 29 -7 29 -8 -10 -9
-22 -1 -58 -6 -80 -10 -31 -7 -35 -9 -15 -11 14 -2 33 -2 44 -1 10 0 24 -3 30
-8 6 -4 33 -12 60 -16 35 -5 45 -9 35 -16 -10 -6 -8 -9 11 -9 14 0 32 -5 40
-10 11 -7 5 -10 -25 -11 -31 0 -35 -2 -20 -8 11 -5 23 -7 28 -4 4 2 7 -1 7 -6
0 -7 -24 -11 -59 -11 -62 0 -92 -16 -44 -23 16 -2 -10 -5 -57 -7 -81 -3 -83
-3 -35 -10 28 -5 77 -9 110 -11 54 -2 56 -3 16 -6 -24 -3 -50 -11 -58 -19 -10
-10 -38 -14 -90 -14 -55 0 -74 -3 -71 -12 3 -8 31 -15 69 -19 35 -3 51 -6 34
-7 -23 -2 -27 -4 -15 -12 8 -5 58 -10 110 -11 l95 -2 -90 -12 -90 -12 65 -2
c46 -1 61 -4 50 -11 -12 -8 -10 -10 10 -11 39 -1 11 -8 -70 -18 l-75 -8 71 -2
c44 -1 77 -6 90 -16 18 -14 18 -14 -11 -16 -28 -2 -28 -2 -5 -7 20 -4 14 -8
-30 -18 l-55 -12 90 -2 c93 -2 97 -4 30 -15 -32 -6 -36 -9 -20 -15 13 -5 -15
-10 -75 -14 -164 -11 -169 -13 -32 -14 180 -3 166 -22 -16 -23 -123 -1 -130
-2 -67 -9 39 -5 103 -10 143 -13 83 -6 108 -17 41 -18 -24 0 -64 -4 -89 -8
-25 -5 354 -9 843 -10 l887 -1 0 3335 0 3335 -827 -1 c-456 -1 -846 -5 -868
-9z"/>
</g>
</svg>
