<?xml version="1.0" standalone="no"?>
<!DOCTYPE svg PUBLIC "-//W3C//DTD SVG 20010904//EN"
 "http://www.w3.org/TR/2001/REC-SVG-20010904/DTD/svg10.dtd">
<svg version="1.0" xmlns="http://www.w3.org/2000/svg"
 width="300.000000pt" height="190.000000pt" viewBox="0 0 300.000000 190.000000"
 preserveAspectRatio="xMidYMid meet">
<metadata>
Created by potrace 1.16, written by Peter Selinger 2001-2019
</metadata>
<g transform="translate(0.000000,190.000000) scale(0.100000,-0.100000)"
fill="#000000" stroke="none">
<path d="M745 1450 c-22 -5 -61 -7 -86 -4 -30 4 -69 -1 -106 -11 -48 -13 -68
-15 -99 -6 -62 17 -173 13 -219 -8 -89 -40 -135 -139 -121 -261 12 -102 56
-254 99 -339 34 -69 49 -88 79 -104 31 -16 43 -17 71 -8 27 9 40 8 66 -5 24
-12 48 -15 87 -11 l54 6 0 -53 c0 -65 24 -147 49 -170 45 -41 151 -36 203 10
33 30 59 98 65 173 l6 68 54 6 c61 6 107 29 136 69 17 23 19 31 9 53 -10 22
-18 25 -63 25 -37 0 -50 3 -46 13 3 6 22 48 41 92 50 113 69 195 64 277 -3 63
-6 70 -42 107 -21 22 -61 49 -88 61 -56 24 -155 33 -213 20z m210 -47 c22 -12
56 -37 75 -57 32 -34 34 -40 33 -104 -1 -81 -46 -224 -99 -319 -19 -34 -34
-65 -34 -69 0 -4 29 -4 65 -1 53 5 67 3 72 -8 13 -36 -72 -84 -148 -85 l-45 0
-13 -91 c-16 -125 -30 -155 -83 -179 -75 -34 -130 -23 -164 33 -13 24 -19 57
-22 128 l-4 97 -27 -14 c-52 -27 -151 -10 -151 26 0 12 17 24 52 36 59 22 71
39 31 47 -24 4 -35 -3 -83 -54 -33 -35 -64 -59 -76 -59 -56 0 -117 109 -165
296 -51 198 -33 309 59 366 31 19 51 23 117 23 44 -1 97 -7 118 -14 32 -11 43
-10 82 5 31 12 63 15 103 12 31 -3 68 -1 82 3 47 15 182 4 225 -18z"/>
<path d="M770 1391 c0 -6 4 -11 9 -11 22 0 102 -86 125 -133 22 -48 24 -62 22
-189 -2 -150 1 -152 48 -40 55 130 72 255 41 300 -30 42 -101 74 -176 80 -48
3 -69 1 -69 -7z"/>
<path d="M280 1378 c-79 -22 -118 -99 -106 -211 17 -168 110 -407 158 -407 5
0 30 23 57 52 l48 51 -23 41 c-22 38 -23 48 -19 177 5 141 26 230 60 259 25
20 18 27 -42 39 -66 13 -85 13 -133 -1z"/>
<path d="M540 1368 c-36 -18 -50 -34 -72 -78 -15 -30 -29 -70 -33 -87 -6 -32
-6 -32 23 -22 50 17 102 8 125 -23 27 -36 31 -177 6 -223 -27 -49 -32 -75 -16
-75 8 0 21 -8 30 -18 14 -15 17 -40 17 -123 1 -125 11 -178 42 -202 41 -33
128 -4 149 50 5 14 16 80 24 146 8 75 19 125 28 134 13 13 9 27 -34 108 -55
107 -67 153 -49 195 12 28 51 50 92 50 18 0 18 2 -4 41 -49 87 -151 149 -248
149 -20 0 -56 -10 -80 -22z"/>
<path d="M463 1145 l-33 -14 0 -101 c0 -99 1 -102 29 -131 45 -44 62 -38 89
29 25 65 29 162 9 202 -15 30 -49 35 -94 15z"/>
<path d="M2513 1180 c-110 -67 -41 -203 95 -187 26 3 55 1 64 -4 10 -6 19 -5
23 1 3 6 0 13 -8 16 -12 4 -11 12 6 45 18 36 18 43 5 77 -24 66 -119 93 -185
52z m120 -12 c42 -22 58 -67 41 -113 -17 -44 -114 -59 -158 -24 -21 16 -26 29
-26 64 0 35 5 48 26 64 30 23 83 27 117 9z"/>
<path d="M1210 1095 c0 -78 3 -95 15 -95 11 0 15 11 15 40 l0 40 58 0 c67 0
95 15 95 53 0 48 -18 57 -104 57 l-79 0 0 -95z"/>
<path d="M1410 1110 c-20 -20 -26 -65 -12 -86 22 -34 77 -42 122 -19 26 13 30
21 30 55 0 29 -6 43 -22 54 -32 23 -94 20 -118 -4z"/>
<path d="M1832 1114 c-30 -21 -30 -77 0 -98 27 -19 89 -21 106 -4 9 9 12 8 12
-8 0 -11 -5 -25 -12 -32 -18 -18 -87 -15 -94 3 -8 20 -24 19 -24 0 0 -34 100
-44 136 -14 17 14 20 169 4 169 -5 0 -10 -5 -10 -10 0 -7 -6 -7 -19 0 -28 15
-73 12 -99 -6z"/>
</g>
</svg>
