<?xml version="1.0" standalone="no"?>
<!DOCTYPE svg PUBLIC "-//W3C//DTD SVG 20010904//EN"
 "http://www.w3.org/TR/2001/REC-SVG-20010904/DTD/svg10.dtd">
<svg version="1.0" xmlns="http://www.w3.org/2000/svg"
 width="1223.000000pt" height="799.000000pt" viewBox="0 0 1223.000000 799.000000"
 preserveAspectRatio="xMidYMid meet">
<metadata>
Created by potrace 1.16, written by Peter Selinger 2001-2019
</metadata>
<g transform="translate(0.000000,799.000000) scale(0.100000,-0.100000)"
fill="#000000" stroke="none">
<path d="M0 3995 l0 -3995 6115 0 6115 0 0 3995 0 3995 -6115 0 -6115 0 0
-3995z m2665 1895 c3 -5 -4 -10 -16 -10 -18 0 -19 -2 -9 -15 7 -8 16 -15 21
-15 5 0 55 -48 111 -106 80 -82 124 -118 195 -161 51 -30 93 -57 93 -60 0 -2
-19 6 -42 20 -127 73 -324 181 -483 263 l-180 94 152 0 c91 0 154 -4 158 -10z
m-924 -90 c-18 -4 -36 -12 -40 -17 -3 -6 -46 -44 -96 -85 -49 -41 -107 -90
-127 -110 -21 -19 -38 -30 -39 -24 0 6 -3 34 -6 61 -2 28 -4 62 -4 77 0 15 -4
30 -9 33 -6 4 -10 -6 -11 -22 0 -25 -1 -26 -9 -8 -13 33 -32 44 -90 48 -50 3
-49 4 20 6 41 1 145 13 230 26 85 12 169 23 185 23 l30 0 -34 -8z m3349 -970
l0 -600 -125 0 -125 0 0 600 0 600 125 0 125 0 0 -600z m300 0 l0 -600 -125 0
-125 0 0 600 0 600 125 0 125 0 0 -600z m320 490 l0 -110 -130 0 -130 0 0 110
0 110 130 0 130 0 0 -110z m4433 -247 c75 -175 183 -430 242 -568 59 -137 109
-256 112 -262 4 -10 -26 -13 -130 -13 l-134 0 -21 53 c-11 30 -35 88 -52 131
l-32 76 -241 -2 -241 -3 -51 -125 -52 -125 -130 -3 -131 -3 178 418 c97 230
208 491 246 581 l69 162 116 0 117 0 135 -317z m-7673 -243 c0 -302 3 -550 6
-550 3 0 19 9 35 21 l29 20 0 395 0 394 125 0 125 0 0 -56 0 -57 44 41 c75 69
118 86 216 86 136 -1 215 -49 269 -164 l26 -55 3 -337 4 -338 -131 0 -131 0 0
278 c0 302 -3 322 -60 364 -64 47 -170 27 -212 -40 -23 -36 -23 -42 -23 -323
l0 -287 -345 -110 c-189 -61 -345 -110 -346 -109 -1 1 66 52 150 112 l151 110
-92 3 -93 3 0 574 0 575 125 0 125 0 0 -550z m4038 118 c-4 -422 -5 -435 -27
-496 -29 -80 -102 -162 -176 -197 -112 -52 -266 -55 -395 -6 -56 21 -167 100
-177 127 -5 13 9 31 109 142 l39 43 33 -28 c60 -53 104 -75 164 -80 71 -6 117
17 146 73 20 37 21 58 24 447 l3 407 130 0 130 0 -3 -432z m662 -143 l0 -575
-125 0 -125 0 0 575 0 575 125 0 125 0 0 -575z m695 560 c143 -30 291 -129
366 -246 107 -167 117 -392 26 -578 -42 -87 -149 -195 -237 -239 -126 -62
-191 -72 -492 -72 l-268 0 0 575 0 575 268 0 c196 0 286 -4 337 -15z m1375
-100 l0 -115 -305 0 -305 0 0 -115 0 -115 270 0 270 0 0 -110 0 -110 -270 0
-270 0 0 -120 0 -120 310 0 310 0 0 -115 0 -115 -440 0 -440 0 0 575 0 575
435 0 435 0 0 -115z m-5510 -40 l0 -115 105 0 105 0 0 -104 c0 -121 6 -116
-127 -116 l-83 0 0 -199 c0 -185 1 -200 21 -225 16 -21 29 -26 62 -26 23 1 59
7 80 14 l37 14 2 -74 c1 -41 2 -86 2 -101 1 -24 -7 -32 -46 -51 -97 -49 -265
-37 -336 23 -60 50 -66 83 -72 370 l-5 260 -52 3 -53 3 0 105 0 104 56 0 55 0
-1 73 c-1 39 -1 91 -1 115 l1 42 125 0 125 0 0 -115z m732 -106 c201 -42 327
-220 328 -461 l0 -78 -306 0 -305 0 6 -22 c14 -46 56 -98 98 -119 85 -44 220
-24 294 43 25 23 26 23 117 -58 l56 -51 -48 -45 c-85 -80 -187 -118 -312 -118
-194 0 -345 92 -423 257 -28 61 -32 79 -35 178 -3 93 -1 120 18 175 75 226
283 347 512 299z m1248 -449 l0 -440 -125 0 -125 0 0 440 0 440 125 0 125 0 0
-440z m-1660 -1255 c34 -17 60 -62 60 -100 0 -49 -27 -90 -114 -173 -47 -45
-86 -85 -86 -87 0 -3 45 -5 100 -5 93 0 100 -1 100 -20 0 -19 -7 -20 -145 -20
-109 0 -145 3 -145 13 0 6 49 59 110 117 119 114 141 150 120 199 -14 34 -59
56 -96 47 -15 -4 -40 -20 -56 -36 -28 -28 -58 -31 -58 -6 0 14 44 57 75 74 29
16 101 14 135 -3z m354 1 c95 -39 136 -196 82 -312 -29 -63 -73 -96 -136 -102
-126 -12 -213 117 -182 267 27 127 130 191 236 147z m571 4 c75 -28 100 -117
48 -168 l-28 -27 38 -36 c43 -42 48 -76 17 -127 -49 -80 -208 -84 -268 -7 -36
46 -24 118 25 151 l24 15 -25 25 c-93 94 35 225 169 174z m475 -5 c34 -17 60
-62 60 -100 0 -49 -27 -90 -114 -173 -47 -45 -86 -85 -86 -87 0 -3 45 -5 100
-5 93 0 100 -1 100 -20 0 -19 -7 -20 -140 -20 -178 0 -178 3 -36 135 115 106
137 143 116 195 -14 33 -59 55 -96 46 -15 -4 -40 -20 -56 -36 -28 -28 -58 -31
-58 -6 0 14 44 57 75 74 29 16 101 14 135 -3z m2458 -5 c42 -19 52 -36 31 -57
-9 -9 -19 -6 -40 9 -39 29 -118 31 -148 4 -51 -46 -12 -105 81 -126 131 -28
178 -117 104 -198 -34 -36 -36 -37 -108 -37 -62 0 -80 4 -121 28 -47 28 -48
29 -31 48 15 17 19 17 33 4 24 -21 86 -45 116 -45 39 0 84 27 91 55 11 45 -18
72 -102 97 -98 28 -134 60 -134 118 0 52 13 76 53 100 42 26 119 26 175 0z
m-3228 -195 l0 -205 -25 0 -25 0 0 180 0 180 -26 -10 c-38 -15 -54 -12 -54 9
0 20 61 49 108 50 l22 1 0 -205z m1330 190 c97 -50 94 -181 -4 -216 l-34 -12
59 -78 c32 -43 59 -80 59 -83 0 -3 -12 -6 -28 -6 -23 0 -37 13 -85 80 l-58 80
-55 0 -54 0 0 -80 c0 -79 0 -80 -25 -80 l-25 0 0 205 0 205 110 0 c78 0 119
-4 140 -15z m440 -5 c0 -19 -7 -20 -120 -20 l-120 0 0 -70 0 -70 110 0 c103 0
110 -1 110 -20 0 -19 -7 -20 -110 -20 l-110 0 0 -75 0 -75 125 0 c118 0 125
-1 125 -20 0 -19 -7 -20 -150 -20 l-150 0 0 205 0 205 145 0 c138 0 145 -1
145 -20z m140 -165 l0 -185 115 0 c108 0 115 -1 115 -20 0 -19 -7 -20 -140
-20 l-140 0 0 205 0 205 25 0 25 0 0 -185z m580 165 c0 -19 -7 -20 -120 -20
l-120 0 0 -70 0 -70 110 0 c103 0 110 -1 110 -20 0 -19 -7 -20 -110 -20 l-110
0 0 -75 0 -75 125 0 c118 0 125 -1 125 -20 0 -19 -7 -20 -150 -20 l-150 0 0
205 0 205 145 0 c138 0 145 -1 145 -20z m371 -180 c49 -107 89 -198 89 -202 0
-4 -11 -8 -24 -8 -20 0 -28 10 -47 55 l-23 55 -108 0 -109 0 -25 -55 c-21 -45
-30 -55 -50 -55 -14 0 -23 3 -21 8 2 4 44 96 92 205 117 260 107 260 226 -3z
m799 180 c0 -19 -7 -20 -120 -20 l-120 0 0 -70 0 -70 110 0 c103 0 110 -1 110
-20 0 -19 -7 -20 -110 -20 l-110 0 0 -75 0 -75 125 0 c118 0 125 -1 125 -20 0
-19 -7 -20 -150 -20 l-150 0 0 205 0 205 145 0 c138 0 145 -1 145 -20z m341
-8 c43 -22 59 -38 81 -81 18 -34 28 -69 28 -96 0 -27 -10 -62 -28 -96 -22 -43
-38 -59 -81 -81 -48 -25 -63 -28 -152 -28 l-99 0 0 205 0 205 99 0 c89 0 104
-3 152 -28z"/>
<path d="M9812 4894 c-40 -97 -71 -178 -69 -181 2 -2 70 -2 150 -1 l145 3 -71
177 c-40 98 -74 178 -77 178 -3 0 -38 -79 -78 -176z"/>
<path d="M7520 4805 l0 -347 143 4 c132 3 147 5 205 32 119 55 182 160 182
305 0 154 -56 253 -177 313 -65 32 -72 33 -210 36 l-143 4 0 -347z"/>
<path d="M4275 4901 c-40 -24 -61 -49 -80 -94 -29 -70 -35 -67 166 -67 l182 0
-6 36 c-8 49 -51 109 -92 128 -46 22 -132 21 -170 -3z"/>
<path d="M4293 3376 c-113 -50 -104 -288 12 -326 108 -36 194 127 136 257 -31
66 -90 94 -148 69z"/>
<path d="M4864 3376 c-53 -24 -55 -95 -3 -121 65 -34 139 -2 139 59 0 59 -71
92 -136 62z"/>
<path d="M4870 3193 c-30 -11 -60 -47 -60 -73 0 -16 11 -37 26 -51 21 -20 36
-24 81 -23 48 0 59 4 79 28 13 15 24 34 24 42 0 56 -87 100 -150 77z"/>
<path d="M5810 3295 l0 -87 84 3 c73 4 88 7 110 28 35 32 35 79 1 111 -21 20
-38 24 -110 28 l-85 5 0 -88z"/>
<path d="M7382 3264 c-23 -53 -41 -98 -39 -101 3 -2 43 -3 89 -1 l85 3 -46 98
-46 99 -43 -98z"/>
<path d="M8480 3215 l0 -168 69 5 c92 7 140 32 169 88 12 24 22 58 22 75 0 17
-10 51 -22 75 -29 56 -77 81 -169 88 l-69 5 0 -168z"/>
</g>
</svg>
