<?xml version="1.0" standalone="no"?>
<!DOCTYPE svg PUBLIC "-//W3C//DTD SVG 20010904//EN"
 "http://www.w3.org/TR/2001/REC-SVG-20010904/DTD/svg10.dtd">
<svg version="1.0" xmlns="http://www.w3.org/2000/svg"
 width="1464.000000pt" height="812.000000pt" viewBox="0 0 1464.000000 812.000000"
 preserveAspectRatio="xMidYMid meet">
<metadata>
Created by potrace 1.16, written by Peter Selinger 2001-2019
</metadata>
<g transform="translate(0.000000,812.000000) scale(0.100000,-0.100000)"
fill="#000000" stroke="none">
<path d="M0 4060 l0 -4060 7320 0 7320 0 0 4060 0 4060 -7320 0 -7320 0 0
-4060z m7794 3579 c-2 -4 3 -12 11 -17 13 -7 16 -29 16 -125 0 -120 -12 -182
-39 -192 -21 -8 -30 4 -12 15 12 8 10 10 -7 10 -15 0 -28 -10 -38 -31 -27 -52
-27 -25 -1 35 14 32 30 55 35 52 6 -4 8 7 4 28 -3 19 -1 36 6 40 7 5 11 51 12
129 0 86 3 113 9 93 5 -16 7 -33 4 -37z m-127 -437 c-19 -22 -29 -52 -17 -52
5 0 12 10 15 21 6 17 9 19 16 8 6 -10 9 -5 9 16 1 26 2 28 11 11 9 -15 13 -16
20 -5 13 22 28 -2 18 -28 -5 -14 -17 -23 -30 -23 -18 0 -19 -2 -9 -15 10 -13
9 -15 -11 -16 -18 -1 -19 -2 -6 -6 15 -4 16 -7 6 -19 -9 -11 -14 -12 -19 -3
-4 6 -13 8 -20 4 -9 -6 -10 -9 0 -15 18 -11 5 -39 -37 -85 -26 -28 -38 -36
-40 -25 -13 44 -14 46 -24 27 -6 -9 -7 -22 -4 -27 3 -6 -1 -10 -10 -10 -9 0
-14 3 -12 8 3 4 -10 7 -28 7 -18 0 -31 -3 -29 -7 3 -4 -2 -10 -10 -15 -11 -6
-12 -13 -6 -23 5 -8 10 -10 10 -4 0 6 6 11 13 11 6 0 29 3 50 7 40 7 45 3 22
-20 -8 -9 -15 -11 -15 -5 0 6 -7 8 -16 4 -10 -3 -14 -13 -10 -25 3 -14 -1 -22
-14 -25 -10 -3 -20 -13 -23 -24 -3 -12 -11 -17 -20 -13 -10 3 -17 -3 -21 -20
-3 -14 -11 -26 -16 -26 -5 0 -30 -20 -56 -45 -25 -25 -49 -45 -54 -45 -4 0
-34 -25 -66 -55 -41 -39 -63 -54 -76 -49 -10 3 -18 1 -18 -5 0 -6 6 -11 13
-11 7 -1 5 -6 -5 -14 -10 -7 -18 -16 -18 -20 0 -11 -81 -110 -99 -121 -9 -5
-18 -21 -19 -35 -4 -26 -31 -52 -45 -43 -5 3 -6 24 -3 47 6 40 5 40 -9 16 -17
-29 -19 -60 -5 -60 6 0 10 -6 10 -14 0 -8 7 -16 15 -18 13 -3 13 -6 0 -32 -8
-16 -15 -55 -15 -90 -1 -33 -5 -81 -10 -106 -5 -27 -5 -46 1 -48 5 -2 9 -10 9
-18 0 -9 4 -13 9 -9 5 3 13 0 16 -6 4 -6 -8 -23 -26 -38 -31 -26 -31 -28 -12
-33 17 -4 20 -2 16 10 -5 11 -2 14 10 9 9 -3 19 -2 22 3 10 16 25 11 25 -8 0
-10 5 -23 11 -29 8 -8 8 -17 0 -32 -7 -12 -8 -21 -2 -21 5 0 11 6 14 13 8 25
33 -48 27 -83 -4 -27 -7 -31 -13 -17 -4 10 -7 32 -7 48 0 17 -4 28 -9 25 -5
-3 -7 -15 -4 -26 9 -32 -13 -23 -36 15 -15 26 -17 35 -7 35 17 0 29 27 19 43
-4 6 -9 2 -14 -11 -9 -23 -49 -27 -49 -5 0 7 -3 13 -7 13 -5 0 -19 16 -32 36
-21 30 -23 39 -12 56 7 11 10 23 7 26 -3 3 -6 1 -6 -5 0 -6 -6 -13 -14 -16
-11 -4 -13 4 -10 36 3 33 2 36 -4 12 l-7 -29 -18 27 c-9 15 -19 41 -21 59 -2
18 -9 34 -15 36 -15 5 -14 32 0 32 7 0 18 -8 25 -17 12 -16 15 -16 24 -3 16
25 12 30 -25 30 -34 0 -35 2 -36 38 -4 98 18 191 42 177 5 -4 9 7 9 23 0 16 8
36 17 43 14 12 16 12 9 0 -6 -9 -4 -12 5 -9 8 2 15 17 17 31 4 37 22 34 22 -3
0 -23 4 -28 16 -23 11 4 14 13 10 32 -12 47 -11 56 2 53 8 -1 11 2 7 8 -4 6
12 28 34 49 30 29 47 38 63 33 18 -4 20 -2 15 17 -4 19 -2 21 16 16 18 -5 19
-4 7 4 -13 10 -13 12 0 20 8 5 26 7 40 5 28 -6 71 28 51 41 -6 3 -11 0 -11 -8
0 -8 -11 -17 -25 -19 -14 -3 -25 -2 -24 1 1 12 71 64 86 64 8 0 20 11 26 24 5
13 14 23 18 23 4 0 20 11 35 25 15 14 31 25 36 25 5 0 17 7 25 16 13 12 18 13
24 3 5 -8 -2 -22 -18 -37 -19 -17 -28 -20 -33 -11 -6 9 -12 8 -25 -4 -15 -16
-14 -17 27 -18 29 -1 36 -3 22 -7 -11 -4 -36 -20 -54 -35 -27 -23 -31 -30 -19
-38 20 -12 26 -11 33 7 3 8 9 13 13 11 16 -9 54 13 51 29 -2 9 3 19 10 21 8 3
10 -1 5 -13 -4 -12 -2 -15 8 -12 15 5 21 66 8 83 -4 6 -4 17 1 25 7 11 11 11
24 1 13 -11 16 -11 16 2 0 16 -26 30 -41 21 -17 -10 -9 13 10 30 11 10 25 15
32 11 7 -5 10 -3 7 6 -7 20 26 51 45 43 10 -3 17 -11 17 -18 0 -6 7 2 15 18 8
15 15 34 15 41 0 19 40 66 51 60 5 -4 6 2 2 11 -4 12 -3 15 5 10 7 -4 12 -3
12 2 0 5 15 31 32 58 24 36 34 44 36 30 2 -9 -3 -25 -11 -34z m353 -379 c0
-13 -3 -14 -8 -6 -6 9 -13 5 -26 -12 -10 -14 -25 -25 -33 -25 -7 0 -16 -7 -19
-15 -4 -8 -10 -15 -15 -15 -4 0 -5 8 -2 17 6 15 5 16 -9 3 -8 -8 -13 -20 -11
-27 3 -7 -10 -21 -29 -32 -18 -11 -44 -29 -56 -41 -25 -21 -38 -25 -45 -12 -2
4 -2 2 -1 -5 2 -10 -120 -143 -131 -143 -3 0 -5 8 -5 18 0 9 -14 25 -30 34
-31 18 -42 45 -14 34 8 -3 13 -2 10 3 -3 5 5 16 19 25 30 20 35 20 35 1 0 -8
7 -15 15 -15 8 0 15 -5 15 -11 0 -5 5 -7 10 -4 6 4 1 14 -12 25 -17 14 -19 19
-8 20 12 0 12 2 2 9 -11 6 -11 10 0 18 30 24 149 83 168 83 12 0 18 5 15 10
-3 6 3 10 14 10 12 0 21 4 21 9 0 5 22 17 50 26 27 9 52 21 55 26 10 15 25 10
25 -8z m-465 -273 c-5 -25 -4 -30 12 -29 10 0 13 3 6 6 -18 7 -16 23 2 23 8 0
15 -7 15 -15 0 -8 6 -15 14 -15 22 0 28 -17 15 -42 l-12 -23 -14 30 -13 30 5
-41 c4 -26 2 -45 -4 -49 -6 -3 -11 -1 -11 4 0 6 -4 11 -9 11 -4 0 -6 -11 -3
-25 5 -29 -5 -75 -17 -75 -4 0 -6 23 -3 50 4 45 3 50 -16 50 -11 0 -29 3 -39
6 -10 3 -6 -2 10 -11 15 -8 27 -22 27 -30 0 -7 3 -22 6 -32 4 -13 3 -15 -4 -4
-7 9 -12 10 -16 2 -4 -6 -2 -11 3 -11 6 0 11 -9 11 -21 0 -11 5 -17 10 -14 6
4 10 -6 10 -22 0 -22 -2 -25 -10 -13 -8 12 -10 9 -10 -11 0 -14 9 -34 20 -44
11 -10 20 -31 20 -47 0 -15 4 -28 9 -28 14 0 36 -62 32 -94 -2 -25 0 -28 19
-23 16 4 24 1 27 -14 3 -10 11 -19 18 -19 8 0 17 -10 21 -22 4 -13 11 -26 16
-29 6 -4 6 -9 -1 -13 -6 -4 -11 -2 -11 4 0 6 -5 8 -10 5 -6 -4 -8 -11 -5 -16
4 -5 -3 -9 -14 -9 -12 0 -21 -4 -21 -10 0 -5 9 -10 21 -10 14 0 19 -5 16 -15
-4 -8 -2 -17 3 -20 6 -4 10 7 10 24 0 25 4 31 21 31 12 0 19 -5 16 -12 -2 -7
5 -20 15 -30 15 -13 20 -35 24 -105 4 -56 2 -83 -4 -75 -7 11 -11 8 -15 -10
-4 -12 -7 -36 -7 -53 0 -36 -12 -57 -30 -53 -7 2 -17 -11 -22 -30 -7 -26 -12
-31 -22 -23 -17 14 -29 2 -15 -15 9 -11 5 -16 -16 -24 -34 -13 -35 -13 -35 6
0 8 5 12 10 9 6 -3 10 3 10 14 0 11 5 23 10 26 6 3 9 25 8 48 l-1 42 -7 -45
-7 -45 -1 39 c-2 33 4 45 33 72 34 31 44 33 26 5 -5 -8 -7 -21 -4 -29 4 -9 12
-1 24 25 10 21 18 41 19 46 0 11 -48 9 -71 -3 -13 -7 -19 -7 -19 0 0 5 -7 10
-15 10 -8 0 -15 4 -15 10 0 5 -5 9 -12 7 -7 -1 -15 13 -19 33 -3 19 -7 29 -8
23 -2 -21 -21 -15 -21 6 0 10 -9 21 -20 24 -14 4 -20 14 -20 34 0 19 -3 24 -9
14 -5 -7 -11 -9 -14 -4 -3 5 3 17 14 26 25 22 30 21 23 0 -4 -13 -3 -15 4 -5
5 7 7 24 4 37 l-4 24 -24 -26 c-25 -27 -61 -26 -50 2 3 8 1 17 -5 20 -5 4 -7
11 -4 16 4 5 -1 9 -9 9 -9 0 -16 8 -16 19 0 10 -6 21 -14 24 -19 7 -25 74 -9
95 11 15 14 15 22 2 6 -8 13 -11 18 -7 4 5 2 12 -5 16 -8 5 -12 25 -11 52 3
51 -18 100 -32 78 -11 -18 -11 -49 0 -49 16 0 19 -61 4 -76 -8 -8 -17 -14 -21
-14 -11 0 -4 192 7 203 6 6 11 20 11 30 0 10 9 30 20 44 11 14 20 21 20 14 0
-6 5 -11 11 -11 7 0 9 10 5 25 -5 20 1 34 34 68 34 35 42 40 51 27 9 -12 10
-10 6 8 -3 14 1 31 11 43 22 26 25 24 17 -11z m-6041 -1614 c41 -21 80 -69
132 -165 18 -33 68 -121 112 -198 44 -76 92 -158 106 -183 59 -102 78 -152 78
-200 0 -56 0 -57 -147 -311 -122 -212 -125 -216 -178 -311 -40 -70 -80 -107
-136 -126 -23 -8 -143 -12 -385 -12 -327 1 -353 2 -386 20 -19 11 -42 22 -50
25 -9 4 -22 16 -30 28 -40 63 -348 607 -359 635 -15 36 -8 127 11 150 11 12
148 249 205 352 55 99 137 236 152 254 9 10 39 29 66 43 l50 23 360 -2 c333
-3 363 -4 399 -22z m787 -2 c90 -26 124 -77 74 -110 -17 -11 -29 -9 -79 12
-76 31 -141 32 -173 2 -51 -48 -18 -92 95 -128 149 -48 192 -90 192 -187 0
-39 -6 -55 -31 -86 -47 -57 -81 -71 -174 -72 -141 0 -267 66 -235 125 14 27
47 25 112 -5 39 -18 70 -25 119 -25 77 0 102 14 102 58 0 40 -16 58 -61 72
-194 60 -252 104 -252 190 0 130 145 203 311 154z m277 0 c14 -10 22 -25 22
-45 0 -37 11 -37 52 2 99 91 258 77 351 -31 83 -97 89 -271 13 -385 -49 -74
-118 -110 -213 -110 -67 0 -75 2 -131 42 -34 22 -63 38 -66 35 -3 -3 -6 -51
-6 -107 0 -88 -3 -104 -20 -123 -25 -26 -57 -28 -82 -5 -17 15 -18 40 -18 361
0 307 2 347 17 364 20 22 51 23 81 2z m654 -1 c8 -10 18 -26 21 -35 8 -23 20
-23 43 3 41 45 123 62 156 32 40 -36 13 -85 -57 -104 -21 -6 -52 -25 -70 -42
-57 -57 -64 -84 -66 -239 -1 -134 -2 -142 -25 -164 -28 -29 -48 -30 -74 -4
-19 19 -20 33 -20 277 0 225 2 259 17 275 20 23 55 23 75 1z m405 -5 c23 -21
23 -23 23 -268 l0 -247 -25 -27 c-28 -30 -42 -32 -73 -10 -22 15 -22 18 -22
276 0 229 2 264 17 280 22 24 52 23 80 -4z m197 6 c9 -8 16 -24 16 -34 0 -31
20 -34 48 -6 75 71 216 73 290 3 53 -49 57 -68 60 -287 4 -230 1 -243 -58
-243 -55 0 -60 16 -60 203 0 152 -2 169 -22 210 -25 49 -43 57 -121 59 -41 1
-52 -4 -85 -33 l-37 -34 -5 -191 c-3 -106 -9 -194 -15 -200 -23 -22 -63 -23
-84 -2 -20 20 -21 31 -21 280 0 257 0 260 22 275 29 20 52 20 72 0z m846 -5
c19 -12 48 -33 63 -47 24 -22 29 -24 37 -12 5 8 10 23 10 32 0 46 65 63 100
26 19 -21 20 -34 20 -242 -1 -302 -18 -371 -106 -435 -57 -41 -108 -54 -209
-54 -67 0 -106 6 -155 23 -100 35 -123 66 -79 105 18 17 24 18 52 6 161 -66
302 -50 347 40 31 60 23 104 -11 63 -8 -9 -32 -28 -54 -43 -35 -22 -50 -25
-124 -25 -56 0 -86 4 -89 12 -2 7 -10 12 -17 12 -27 0 -86 63 -117 124 -27 53
-30 71 -31 146 0 72 4 93 26 135 53 105 129 154 237 155 48 0 74 -5 100 -21z
m7510 -864 l0 -25 -167 0 c-210 0 -217 -3 -221 -84 -4 -79 6 -85 130 -86 121
0 189 -14 223 -46 26 -24 27 -29 23 -99 -4 -85 -12 -95 -92 -120 -36 -11 -95
-15 -212 -15 -154 0 -163 1 -169 20 -3 11 -3 24 0 30 4 6 71 10 171 10 91 0
174 4 184 10 23 12 33 57 25 104 -9 46 -39 56 -169 56 -163 1 -214 36 -212
146 1 37 7 59 21 74 39 44 69 49 273 50 l192 0 0 -25z m563 3 c47 -26 54 -46
61 -175 10 -168 2 -230 -37 -266 l-31 -28 42 -36 c47 -40 46 -53 -2 -53 -24 0
-47 11 -83 40 l-49 40 -145 3 c-131 2 -147 4 -181 25 -20 13 -40 33 -44 45 -4
12 -8 92 -9 177 -1 180 5 202 68 230 37 17 63 19 212 17 134 -2 176 -6 198
-19z m247 -180 c0 -173 2 -204 17 -220 14 -16 34 -18 190 -18 l173 0 0 -31 0
-31 -182 4 c-294 7 -292 5 -296 295 l-4 203 51 0 51 0 0 -202z m-10890 132 c5
-10 10 -50 10 -89 0 -38 4 -72 8 -75 5 -3 24 4 43 16 44 27 136 27 182 1 79
-47 117 -178 83 -293 -19 -66 -53 -105 -113 -132 -51 -23 -111 -18 -155 13
-33 24 -38 24 -67 -6 -30 -32 -54 -32 -80 1 -20 25 -21 39 -21 288 0 232 2
263 18 282 31 38 70 36 92 -6z m1618 4 c19 -13 22 -24 22 -80 0 -62 1 -64 26
-64 38 0 64 -18 64 -44 0 -24 -34 -46 -70 -46 -19 0 -20 -8 -20 -113 0 -134 8
-153 63 -144 64 10 87 -53 30 -84 -31 -17 -130 -17 -160 0 -40 21 -47 50 -51
197 l-4 140 -29 13 c-41 18 -40 58 1 74 28 11 30 14 30 66 0 84 45 123 98 85z
m-864 -158 c89 -48 130 -151 105 -263 -46 -204 -343 -231 -425 -38 -22 53 -22
139 0 200 42 116 201 166 320 101z m511 13 c43 -13 92 -60 115 -110 44 -98 11
-242 -67 -293 -167 -108 -363 -4 -363 193 0 167 144 263 315 210z m2563 -601
c8 -8 15 -8 27 2 15 12 17 10 19 -20 1 -8 7 -14 14 -12 7 1 12 -2 12 -8 0 -5
5 -10 10 -10 6 0 10 7 10 15 0 8 -7 15 -15 15 -8 0 -15 5 -15 11 0 6 6 9 14 6
8 -3 16 -1 18 5 9 25 35 -2 39 -39 8 -80 1 -1132 -8 -1213 -10 -90 -28 -140
-49 -140 -7 0 -10 -8 -7 -20 7 -26 -47 -81 -74 -76 -10 2 -27 -3 -38 -11 -19
-15 -19 -15 3 -8 16 4 22 2 22 -8 0 -17 -27 -31 -54 -28 -13 2 -17 -2 -13 -11
8 -22 -59 -44 -80 -26 -37 29 -66 58 -62 61 26 21 78 43 94 40 17 -2 17 -2 3
5 -16 7 -16 10 7 35 14 15 34 27 43 27 11 0 13 3 6 8 -17 10 24 95 43 88 10
-4 11 -1 3 14 -5 10 -10 47 -9 82 1 38 4 54 7 40 4 -13 6 249 4 582 -2 337 1
606 5 606 5 0 14 -5 21 -12z m734 -332 c-35 -12 -33 -26 3 -26 13 0 29 9 36
21 18 27 66 17 81 -17 9 -20 19 -24 55 -24 23 0 43 -1 43 -3 0 -1 -4 -17 -9
-35 -8 -27 -7 -34 6 -39 9 -4 19 1 25 10 12 23 28 21 28 -2 0 -11 5 -23 10
-26 7 -4 10 -132 10 -370 -1 -199 2 -375 6 -389 6 -25 4 -26 -36 -26 -29 0
-47 6 -56 18 -17 21 -18 33 -3 29 6 -1 14 4 16 11 3 8 -1 10 -13 5 -13 -5 -16
-3 -11 10 5 13 -3 17 -39 23 -24 3 -47 11 -50 16 -3 5 -11 4 -19 -2 -14 -11
-35 -6 -35 8 0 4 17 16 38 27 62 33 66 45 65 177 -1 64 -4 122 -7 127 -4 6 10
22 31 36 l38 25 -35 -6 c-19 -4 -39 -7 -45 -8 -5 0 -11 9 -13 22 -2 12 1 22 7
22 5 0 16 7 25 15 12 12 13 22 6 41 -6 14 -7 36 -4 49 14 55 -48 154 -113 181
-18 8 -50 14 -72 14 -32 0 -39 3 -35 15 4 8 1 15 -6 15 -6 0 -8 5 -5 10 3 6
-3 10 -14 10 -25 0 -27 -13 -5 -34 14 -15 12 -16 -18 -16 -18 0 -43 -3 -55 -6
-14 -4 -23 -2 -23 5 0 6 8 11 18 11 14 0 15 2 2 9 -8 6 -19 7 -25 3 -5 -3 -17
-7 -25 -9 -8 -1 -20 -9 -26 -18 -8 -10 -14 -12 -19 -6 -3 6 -11 11 -16 11 -6
0 -7 -4 -4 -10 3 -5 1 -10 -5 -10 -6 0 -8 -4 -5 -10 3 -6 -4 -10 -17 -10 -13
0 -18 4 -13 8 6 4 10 16 10 27 0 13 8 21 23 23 12 2 22 8 22 14 0 6 -12 8 -30
4 -17 -3 -29 -2 -26 3 8 12 56 20 56 10 0 -14 32 -10 60 6 67 39 87 44 165 44
74 0 78 -1 47 -13z m1949 -18 c61 -29 70 -36 66 -56 -4 -20 -1 -23 22 -20 17
2 26 -2 27 -12 0 -8 4 -24 8 -35 15 -39 19 -50 19 -55 -1 -3 -4 -20 -8 -37 -4
-20 -3 -33 4 -33 5 0 12 10 14 23 2 12 5 -137 6 -330 l1 -353 -25 0 c-13 0
-28 6 -32 13 -4 6 -17 13 -28 14 -20 1 -20 1 -1 -13 19 -13 19 -14 -7 -14 -28
0 -28 0 -30 73 -1 26 -4 28 -29 23 -30 -6 -49 10 -23 20 9 4 14 12 11 20 -3 7
0 15 7 17 7 2 9 7 6 11 -4 4 -19 -4 -34 -18 -15 -14 -32 -23 -37 -20 -11 7 43
61 58 56 17 -5 13 233 -4 250 -6 6 -27 17 -44 23 -28 8 -33 14 -30 38 3 21 -1
27 -15 27 -10 0 -25 -5 -33 -10 -12 -8 -8 -10 15 -11 29 -1 29 -1 5 -8 -23 -6
-23 -8 -6 -14 26 -10 17 -16 -33 -23 -54 -8 -78 1 -61 21 14 17 11 18 -44 15
-23 -1 -36 2 -32 8 3 6 15 8 26 5 14 -4 20 0 20 11 0 14 14 16 90 16 68 0 90
-3 90 -13 0 -21 47 -60 64 -54 11 4 15 1 14 -11 -5 -59 4 -192 12 -192 12 0
13 55 3 193 -5 82 -8 94 -18 75 -8 -16 -8 -25 -1 -30 7 -5 4 -8 -6 -8 -23 0
-61 37 -47 46 5 3 16 3 23 1 18 -7 30 69 21 124 -4 25 -3 39 4 39 6 0 11 -20
11 -47 0 -27 5 -55 11 -63 7 -11 9 4 5 53 -4 59 -2 69 15 80 23 14 25 33 4 41
-8 3 -15 16 -15 30 0 15 -7 25 -19 29 -17 4 -18 2 -9 -24 6 -16 7 -36 4 -45
-5 -13 -1 -15 20 -10 24 6 25 6 10 -9 -9 -9 -21 -13 -27 -9 -6 3 -16 0 -21 -7
-7 -10 -8 -8 -5 9 4 15 -1 26 -15 33 -11 6 -24 23 -29 39 -8 21 -15 27 -30 23
-10 -3 -25 -1 -32 4 -6 5 -25 10 -41 11 -38 3 -48 12 -13 12 15 0 27 4 27 9 0
8 -31 8 -100 0 -8 -1 -1 -5 15 -9 23 -6 15 -8 -36 -9 -36 0 -88 -8 -115 -16
-67 -20 -84 -19 -84 5 0 11 -5 20 -11 20 -6 0 -8 -8 -5 -17 3 -10 1 -25 -4
-33 -8 -13 -10 -13 -11 3 -3 30 -4 35 -11 43 -11 10 31 44 46 38 7 -3 18 2 25
10 7 8 34 18 59 22 26 3 53 10 60 13 7 4 65 9 128 10 113 2 118 1 185 -31z
m-1427 -3 c3 -8 11 -15 18 -15 7 0 26 -11 42 -25 23 -20 27 -28 18 -37 -16
-16 -15 -51 1 -45 6 2 12 20 12 40 0 21 3 37 6 37 9 0 19 -27 19 -51 0 -11 5
-17 10 -14 11 7 3 53 -13 72 -5 7 -13 11 -17 8 -5 -3 -15 2 -23 10 -9 8 -27
15 -41 15 -14 0 -26 5 -26 10 0 6 20 10 45 10 26 0 45 -5 45 -11 0 -6 6 -9 14
-6 11 5 18 -8 27 -51 6 -31 18 -67 26 -79 8 -14 11 -39 8 -65 -2 -24 -2 -35 1
-25 7 23 23 22 21 -3 -1 -15 -8 -20 -28 -20 -33 0 -45 -26 -19 -40 17 -9 20
-7 20 10 0 11 7 20 16 20 10 0 13 -6 9 -19 -4 -13 0 -20 15 -24 14 -3 20 -13
20 -31 0 -15 4 -34 9 -44 14 -28 31 -87 31 -108 0 -11 7 -30 16 -42 13 -19 13
-29 2 -74 -7 -29 -10 -66 -7 -83 9 -40 15 -23 18 48 2 35 4 38 11 20 5 -12 8
-46 7 -77 -2 -30 1 -50 5 -43 5 8 8 4 8 -10 0 -21 2 -21 32 -9 17 8 33 22 34
32 10 70 15 83 31 77 13 -5 14 0 8 35 -4 28 -3 42 4 42 6 0 11 -5 11 -12 0 -9
3 -9 12 0 8 8 8 15 -1 26 -13 16 -5 66 11 66 6 0 8 11 4 23 -4 16 1 31 13 44
11 12 21 41 24 79 10 97 17 138 28 149 5 5 9 28 9 50 0 33 5 44 23 54 12 6 15
10 7 8 -12 -4 -14 5 -12 44 l4 49 80 0 80 0 -6 -35 c-3 -19 -8 -52 -11 -72
-12 -79 -14 -83 -43 -84 -23 -2 -24 -2 -4 -6 26 -5 30 -23 5 -24 -11 0 -13 -3
-5 -6 18 -7 15 -34 -13 -111 -14 -38 -25 -81 -25 -95 0 -49 -20 -40 -21 10
l-2 48 -7 -45 c-4 -25 -3 -55 1 -68 11 -29 11 -32 1 -32 -5 0 -14 10 -19 23
-10 21 -10 20 -9 -8 1 -16 5 -36 10 -43 14 -23 0 -40 -29 -34 -21 3 -27 0 -32
-17 -7 -27 -23 -28 -23 -1 0 11 -3 20 -8 20 -4 0 -5 -21 -3 -46 2 -26 6 -43
10 -38 3 5 13 9 21 9 8 0 16 10 18 23 2 12 7 22 11 22 11 0 -8 -104 -20 -108
-5 -2 -9 -11 -9 -20 0 -9 -7 -30 -15 -46 -8 -15 -15 -37 -15 -48 0 -15 -5 -18
-20 -13 -11 3 -20 2 -20 -3 0 -6 5 -12 11 -14 7 -2 9 -13 4 -27 -5 -16 -11
-20 -23 -15 -24 12 -183 17 -193 7 -4 -4 22 -7 59 -6 48 1 60 0 42 -7 -14 -4
-46 -8 -71 -9 -41 -1 -48 2 -53 23 -3 13 -9 32 -12 41 -6 14 -3 16 14 10 13
-3 22 -2 22 4 0 5 8 12 18 14 9 3 -1 3 -23 0 l-40 -5 0 59 c0 49 -3 58 -17 57
-10 -1 -18 1 -19 5 -1 3 -2 22 -4 41 -2 19 -8 36 -14 38 -6 2 -10 13 -10 25 1
17 2 18 6 5 2 -10 8 -18 13 -18 5 0 11 -10 13 -22 2 -13 5 -4 6 20 0 25 -3 41
-8 37 -16 -9 -61 48 -61 77 0 15 -5 30 -10 33 -6 4 -10 16 -9 28 1 12 1 36 0
52 -2 27 -3 28 -12 10 -7 -16 -8 -14 -3 10 3 16 6 34 7 40 1 5 -6 9 -15 9 -19
-2 -38 48 -38 97 0 14 -4 29 -9 35 -17 18 -40 109 -38 152 2 43 10 54 21 27z
m-470 -385 c-5 -5 -27 -10 -49 -13 -34 -3 -32 -4 15 -5 30 -1 50 -6 44 -10 -6
-4 -13 -15 -17 -24 -5 -14 -18 -18 -51 -18 -24 0 -52 -3 -62 -7 -13 -5 -16 -3
-11 10 5 14 0 17 -29 17 -49 0 -39 23 10 27 21 1 41 5 45 8 3 4 -25 4 -63 0
-38 -3 -75 -13 -83 -21 -8 -8 -28 -14 -45 -14 -17 0 -28 -3 -24 -7 4 -4 33 -8
64 -8 31 0 57 -4 57 -10 0 -5 -15 -9 -33 -9 -28 1 -30 0 -15 -11 15 -11 14
-15 -14 -42 -17 -17 -36 -39 -42 -50 -15 -30 -17 -129 -1 -148 9 -11 10 -18 1
-28 -14 -18 -2 -30 15 -16 11 9 15 7 20 -5 4 -9 24 -26 45 -37 47 -23 52 -43
9 -34 -19 4 -30 3 -30 -4 0 -6 9 -11 20 -11 22 0 27 -15 8 -23 -12 -5 17 -9
89 -11 17 -1 34 -4 38 -7 9 -9 -237 -4 -257 5 -10 5 -15 12 -12 17 3 5 -2 9
-11 9 -9 0 -30 14 -47 30 -27 27 -30 36 -24 70 6 37 -7 64 -17 38 -3 -7 -6 17
-6 53 -1 45 3 70 13 78 7 6 14 23 14 36 0 25 20 60 30 50 3 -2 -1 -12 -8 -21
-18 -21 1 -34 52 -34 20 0 39 -6 41 -12 3 -7 6 -3 6 10 1 12 10 31 21 42 21
21 26 40 11 40 -5 0 -13 -9 -16 -20 -8 -25 -27 -27 -24 -2 3 32 -1 35 -21 17
-20 -18 -21 -18 -14 -1 6 16 5 17 -15 6 -13 -6 -25 -9 -29 -6 -3 3 -1 6 5 6 5
0 22 11 37 25 34 31 84 53 156 69 66 15 218 20 204 6z m1646 -60 c0 -4 -12 -5
-27 -2 -21 4 -25 2 -20 -12 4 -10 1 -16 -9 -16 -8 0 -17 -7 -20 -15 -4 -8 -10
-15 -16 -15 -5 0 -6 5 -2 11 4 7 -1 9 -12 7 -12 -2 -18 -11 -17 -23 1 -10 -6
-24 -14 -30 -9 -7 -13 -16 -10 -21 3 -6 2 -16 -4 -24 -7 -13 -9 -12 -9 3 0 10
-8 17 -20 17 -14 0 -20 -6 -19 -22 0 -13 3 -17 6 -10 11 29 23 -4 23 -65 0
-71 -9 -79 -17 -16 -7 54 -13 54 -13 0 0 -40 -3 -47 -19 -47 -35 0 -51 -12
-51 -36 0 -32 14 -30 27 4 l10 27 10 -24 10 -25 17 21 c12 13 26 18 42 15 33
-6 39 -20 18 -43 -15 -16 -15 -19 -1 -19 8 0 18 6 21 13 3 8 11 5 24 -10 17
-20 30 -23 86 -23 35 0 67 4 70 9 8 12 46 21 46 10 0 -4 -12 -15 -27 -23 l-28
-15 32 2 c23 1 33 7 33 18 0 12 10 16 43 15 36 -1 41 -3 30 -14 -7 -8 -20 -12
-27 -9 -19 8 -28 -3 -16 -18 8 -9 5 -15 -7 -19 -10 -4 -19 -7 -21 -6 -2 1 -13
-5 -25 -13 -26 -16 -127 -28 -127 -15 0 5 -10 9 -22 8 -13 -1 -48 -2 -78 -1
-41 1 -51 4 -40 12 11 7 8 9 -17 7 -35 -3 -83 30 -83 57 0 8 -4 15 -9 15 -16
0 -23 38 -11 60 8 14 8 20 0 20 -7 0 -9 8 -4 22 3 12 6 47 6 77 -1 55 20 121
38 121 5 0 16 -10 24 -22 l16 -22 0 26 c0 15 -5 30 -10 33 -6 4 -8 11 -4 16 3
5 10 7 15 4 5 -4 9 1 9 9 0 9 7 16 16 16 10 0 14 -6 10 -15 -7 -20 4 -19 20 3
12 14 15 15 23 3 7 -11 17 -12 43 -4 18 5 32 14 31 20 -1 5 11 7 28 5 16 -2
29 -8 29 -12z m-2402 -1578 c29 -49 52 -91 52 -95 0 -4 -48 -7 -108 -7 l-107
0 -53 90 c-28 49 -52 92 -52 95 0 3 49 5 108 5 l108 0 52 -88z m1975 1 c30
-49 68 -112 83 -140 16 -29 32 -53 36 -53 4 0 9 62 10 138 3 134 4 137 26 140
l22 3 0 -185 0 -186 -39 0 -39 0 -83 138 -84 137 -3 -137 -3 -138 -24 0 -25 0
0 185 0 185 34 0 c32 0 38 -5 89 -87z m444 75 c6 -7 29 -67 53 -133 23 -66 48
-131 55 -145 7 -14 15 -37 19 -52 6 -26 4 -28 -22 -28 -24 0 -31 6 -45 40
l-15 40 -77 0 -77 0 -15 -40 c-12 -31 -21 -40 -40 -40 -12 0 -23 4 -23 9 0 5
14 47 31 93 17 45 42 112 55 148 13 36 28 77 33 93 11 29 50 38 68 15z m393
-12 c0 -23 -5 -25 -47 -28 l-48 -3 -3 -157 -3 -158 -27 0 -27 0 -2 153 c-1 83
-2 155 -3 160 0 4 -22 7 -50 7 -42 0 -50 3 -50 18 0 10 3 22 7 25 3 4 62 7
130 7 l123 0 0 -24z m275 -1 c0 -18 -8 -21 -70 -25 l-70 -5 0 -54 0 -54 60 -4
c66 -4 70 -6 62 -28 -5 -11 -22 -15 -67 -15 l-60 0 0 -60 0 -60 75 0 c69 0 75
-2 75 -20 0 -20 -5 -21 -102 -18 l-103 3 0 165 c0 91 2 173 4 183 3 16 14 17
100 15 88 -3 96 -5 96 -23z m-3077 -452 c28 -48 49 -90 46 -95 -6 -10 -172 -9
-197 0 -26 11 -119 176 -102 182 8 3 56 4 108 2 l94 -3 51 -86z"/>
<path d="M1052 4693 l-27 -28 1 -239 c2 -235 2 -240 24 -258 30 -25 82 -23
106 3 17 19 19 41 22 255 l3 235 -30 29 c-37 37 -65 38 -99 3z"/>
<path d="M798 4593 c-135 -113 -196 -296 -159 -481 26 -129 129 -256 259 -320
76 -37 78 -37 202 -37 124 0 126 0 200 37 174 85 270 240 271 433 0 144 -55
269 -158 358 -70 58 -133 43 -133 -32 0 -25 9 -41 45 -73 54 -49 103 -145 112
-217 20 -172 -110 -343 -283 -371 -136 -22 -275 44 -343 163 -34 60 -55 162
-46 221 11 65 54 144 106 198 38 39 49 57 49 82 0 66 -64 86 -122 39z"/>
<path d="M2691 4829 c-48 -29 -69 -56 -86 -115 -29 -94 15 -197 100 -235 47
-22 66 -23 119 -8 122 34 167 215 79 319 -50 60 -148 78 -212 39z"/>
<path d="M4535 4835 c-63 -28 -95 -89 -95 -182 0 -69 18 -112 65 -151 129
-106 307 16 281 193 -8 53 -40 102 -85 132 -39 26 -116 30 -166 8z"/>
<path d="M12397 4012 c-14 -16 -17 -43 -17 -175 0 -183 0 -184 107 -190 86 -5
96 4 53 48 l-34 35 50 0 c44 0 54 -4 84 -35 72 -74 95 -30 88 172 -4 117 -7
135 -24 148 -14 11 -52 14 -155 15 -119 0 -138 -2 -152 -18z"/>
<path d="M2204 3803 c-68 -14 -102 -140 -59 -223 39 -75 136 -66 170 17 26 63
13 157 -26 190 -18 14 -57 22 -85 16z"/>
<path d="M2685 3776 c-33 -35 -35 -41 -35 -108 0 -77 17 -119 57 -137 69 -32
137 13 148 98 12 94 -28 166 -98 178 -33 5 -41 2 -72 -31z"/>
<path d="M3242 3797 c-83 -46 -83 -216 0 -265 40 -23 96 -7 125 37 18 26 23
48 23 93 0 70 -19 112 -60 133 -35 18 -57 19 -88 2z"/>
<path d="M8715 2709 c-17 -49 -19 -77 -16 -318 2 -209 0 -266 -11 -272 -10 -7
-9 -9 5 -9 24 0 21 -16 -5 -25 l-23 -7 25 -7 c18 -5 27 -3 31 8 5 11 8 7 10
-13 2 -16 11 -31 19 -33 12 -4 13 -3 1 5 -14 10 -12 121 5 379 4 51 3 131 -1
178 -6 72 -9 85 -22 80 -13 -4 -14 -3 -4 9 7 8 11 29 9 47 -3 32 -4 31 -23
-22z"/>
</g>
</svg>
