<?xml version="1.0" standalone="no"?>
<!DOCTYPE svg PUBLIC "-//W3C//DTD SVG 20010904//EN"
 "http://www.w3.org/TR/2001/REC-SVG-20010904/DTD/svg10.dtd">
<svg version="1.0" xmlns="http://www.w3.org/2000/svg"
 width="1366.000000pt" height="768.000000pt" viewBox="0 0 1366.000000 768.000000"
 preserveAspectRatio="xMidYMid meet">
<metadata>
Created by potrace 1.16, written by Peter Selinger 2001-2019
</metadata>
<g transform="translate(0.000000,768.000000) scale(0.100000,-0.100000)"
fill="#000000" stroke="none">
<path d="M9750 6195 c-235 -39 -450 -131 -636 -271 -100 -75 -250 -235 -322
-342 -340 -508 -318 -1186 54 -1674 148 -195 393 -378 617 -463 81 -30 120
-32 147 -5 18 18 20 33 20 171 l0 151 -22 -5 c-59 -15 -158 -18 -217 -7 -127
23 -192 74 -253 198 -41 84 -87 139 -178 214 -28 24 -31 30 -19 44 10 13 25
15 67 11 76 -8 140 -52 206 -144 56 -78 108 -122 165 -142 47 -16 138 -14 199
4 51 15 51 16 68 76 9 33 30 77 45 99 l28 38 -72 12 c-383 64 -566 277 -570
665 -2 173 23 257 107 368 32 42 34 49 24 74 -19 46 -15 229 5 297 l18 59 59
-6 c71 -8 157 -41 260 -101 l76 -44 99 20 c143 29 382 29 520 0 l99 -21 46 29
c123 79 312 142 341 113 35 -35 55 -244 31 -329 -12 -40 -11 -43 32 -107 81
-121 91 -158 91 -347 0 -145 -3 -174 -23 -240 -75 -240 -227 -366 -511 -422
l-111 -22 25 -26 c14 -15 36 -51 47 -81 20 -50 23 -75 26 -322 4 -259 4 -267
25 -282 33 -23 69 -18 167 21 296 119 586 386 729 671 211 422 209 903 -4
1311 -210 403 -591 680 -1039 757 -107 18 -358 18 -466 0z"/>
<path d="M5180 4878 c-56 -29 -80 -74 -80 -148 0 -74 24 -119 80 -147 86 -45
203 -17 242 57 23 45 24 133 0 180 -22 45 -89 80 -152 80 -28 0 -63 -9 -90
-22z"/>
<path d="M2495 4860 c-11 -4 -63 -51 -115 -104 l-95 -96 108 -108 108 -108 49
0 c87 0 154 -72 148 -157 l-3 -47 102 -102 102 -102 48 3 c83 4 156 -62 156
-142 0 -83 -57 -147 -140 -154 -39 -4 -55 0 -82 19 -59 40 -76 72 -75 138 l1
59 -94 93 -93 93 0 -261 0 -261 26 -24 c105 -98 45 -259 -96 -259 -144 0 -202
169 -90 263 l30 26 0 261 0 261 -34 29 c-43 39 -60 79 -54 134 l5 44 -106 106
-106 106 -308 -308 c-307 -307 -307 -308 -307 -350 0 -24 6 -55 14 -70 8 -15
212 -223 453 -463 466 -465 464 -463 536 -440 22 8 169 147 480 459 l447 448
0 54 0 54 -442 444 c-244 244 -455 450 -470 458 -30 15 -72 17 -103 4z"/>
<path d="M5805 4673 c-28 -166 -89 -238 -227 -267 -28 -6 -28 -7 -28 -86 l0
-79 68 -3 67 -3 6 -310 c5 -258 8 -318 23 -356 20 -53 61 -100 111 -123 49
-24 162 -35 248 -26 73 9 223 52 241 70 7 7 -22 132 -39 167 0 1 -23 -4 -50
-12 -72 -22 -156 -20 -188 6 -43 33 -48 73 -45 339 l3 245 138 3 137 3 0 94 0
95 -140 0 -140 0 0 140 0 140 -90 0 -89 0 -6 -37z"/>
<path d="M4231 4395 c-119 -33 -192 -92 -240 -195 -22 -47 -26 -69 -26 -150 0
-128 35 -210 115 -265 l38 -27 -69 -67 c-69 -69 -99 -118 -99 -167 0 -38 30
-94 56 -106 l23 -11 -34 -42 c-66 -80 -82 -162 -46 -241 37 -81 129 -124 303
-145 275 -32 521 28 615 151 96 122 76 322 -38 392 -59 37 -149 55 -343 68
-89 6 -184 13 -213 16 l-52 5 31 50 c21 35 35 48 46 44 36 -13 163 -17 228 -6
196 34 306 149 308 322 1 67 -3 84 -30 137 l-32 60 84 7 84 7 0 78 0 78 -197
6 c-109 3 -256 8 -328 11 -97 3 -144 1 -184 -10z m276 -201 c53 -40 68 -70 68
-139 0 -102 -52 -156 -159 -163 -125 -8 -190 47 -190 159 1 73 26 117 84 147
57 30 154 28 197 -4z m-81 -864 c77 -5 152 -14 167 -19 64 -25 54 -100 -18
-136 -35 -17 -60 -20 -190 -20 -133 0 -154 2 -185 21 -57 33 -65 90 -20 146
17 22 26 25 62 22 24 -2 106 -8 184 -14z"/>
<path d="M5047 4388 c-3 -13 -8 -48 -12 -78 l-7 -55 59 -21 58 -20 3 -312 2
-312 -22 -4 c-13 -3 -40 -8 -60 -11 l-38 -6 0 -79 0 -80 270 0 270 0 0 78 0
79 -57 9 -58 9 -3 413 -2 412 -199 0 c-198 0 -199 0 -204 -22z"/>
<path d="M8270 3220 c-69 -15 -164 -66 -204 -110 -48 -54 -90 -140 -111 -230
-19 -85 -23 -303 -6 -385 35 -179 132 -294 286 -341 129 -39 329 -26 451 30
l54 25 -2 273 -3 273 -183 3 -183 2 3 -97 3 -98 68 -3 67 -3 0 -103 0 -104
-57 -7 c-73 -8 -147 8 -191 42 -121 92 -130 455 -14 566 64 61 177 80 315 52
49 -10 89 -16 91 -14 2 2 12 42 24 89 24 98 22 103 -52 126 -61 19 -290 28
-356 14z"/>
<path d="M9747 3184 c-4 -4 -7 -233 -7 -509 0 -376 3 -504 12 -513 7 -7 44
-12 98 -12 54 0 91 5 98 12 9 9 12 74 12 230 l0 218 150 0 150 0 2 -227 3
-228 101 -3 c77 -2 104 1 113 11 8 11 11 147 9 518 l-3 504 -110 0 -110 0 -3
-187 -2 -188 -145 0 -145 0 -2 188 -3 187 -106 3 c-58 1 -108 -1 -112 -4z"/>
<path d="M11337 3184 c-4 -4 -7 -233 -7 -509 0 -376 3 -504 12 -513 7 -7 40
-12 80 -12 64 0 69 2 78 25 l10 25 49 -25 c90 -45 242 -51 319 -11 44 23 87
80 108 144 15 46 19 88 19 217 0 146 -2 164 -23 210 -49 106 -112 144 -239
145 -58 0 -98 -6 -133 -19 l-50 -19 -2 172 -3 171 -106 3 c-58 1 -108 -1 -112
-4z m378 -494 c41 -15 65 -80 65 -175 0 -92 -13 -148 -41 -176 -24 -24 -103
-26 -155 -4 l-34 14 2 162 3 162 35 13 c43 16 91 17 125 4z"/>
<path d="M8910 3157 c-33 -17 -70 -74 -70 -109 0 -70 58 -128 126 -128 36 0
51 6 82 34 34 32 37 38 37 91 0 53 -3 59 -37 91 -41 37 -91 45 -138 21z"/>
<path d="M9260 2957 l0 -104 -54 -12 c-31 -7 -57 -19 -60 -27 -11 -28 -6 -120
6 -132 7 -7 34 -12 60 -12 l48 0 0 -177 c0 -98 5 -195 11 -216 14 -52 61 -102
116 -123 48 -19 154 -24 216 -11 l37 8 0 83 0 84 -60 4 c-93 7 -94 10 -98 193
l-3 154 78 3 78 3 0 95 0 95 -77 3 -78 3 0 94 0 95 -110 0 -110 0 0 -103z"/>
<path d="M8862 2858 c-9 -9 -12 -101 -12 -354 0 -303 2 -343 16 -348 20 -8
178 -8 198 0 14 5 16 45 16 348 0 253 -3 345 -12 354 -16 16 -190 16 -206 0z"/>
<path d="M10587 2864 c-11 -12 -8 -545 3 -586 13 -45 52 -93 93 -115 76 -39
233 -34 331 10 l54 25 11 -24 c11 -26 39 -30 114 -18 l37 7 -2 351 -3 351
-105 0 -105 0 -3 -249 c-1 -148 -6 -254 -12 -261 -17 -20 -96 -38 -134 -31
-58 11 -60 24 -66 296 l-5 245 -101 3 c-55 1 -103 0 -107 -4z"/>
</g>
</svg>
