<?xml version="1.0" standalone="no"?>
<!DOCTYPE svg PUBLIC "-//W3C//DTD SVG 20010904//EN"
 "http://www.w3.org/TR/2001/REC-SVG-20010904/DTD/svg10.dtd">
<svg version="1.0" xmlns="http://www.w3.org/2000/svg"
 width="290.000000pt" height="174.000000pt" viewBox="0 0 290.000000 174.000000"
 preserveAspectRatio="xMidYMid meet">
<metadata>
Created by potrace 1.16, written by Peter Selinger 2001-2019
</metadata>
<g transform="translate(0.000000,174.000000) scale(0.100000,-0.100000)"
fill="#000000" stroke="none">
<path d="M0 870 l0 -870 1450 0 1450 0 0 870 0 870 -1450 0 -1450 0 0 -870z
m982 776 c88 -16 174 -58 182 -90 21 -79 -5 -120 -98 -155 -179 -67 -504 -47
-598 38 -27 24 -30 33 -30 77 1 41 6 53 29 72 25 20 120 54 183 65 57 10 260
5 332 -7z m1489 -17 c10 -16 12 -259 3 -283 -5 -14 -34 -16 -219 -16 -161 0
-214 3 -217 13 -4 9 -3 169 1 270 1 10 10 21 20 25 11 4 106 6 212 6 149 -1
193 -5 200 -15z m-2001 -274 c138 -71 491 -74 649 -4 24 10 45 19 47 19 2 0 4
-20 4 -45 0 -54 -21 -76 -97 -105 -85 -32 -186 -43 -323 -37 -144 7 -265 39
-298 79 -9 12 -22 108 -14 108 2 0 16 -7 32 -15z m1344 -74 c23 -10 60 -23 83
-30 52 -14 133 -77 171 -133 16 -24 44 -76 62 -116 28 -60 40 -76 68 -87 44
-19 112 -73 112 -90 0 -7 -17 -15 -40 -19 l-41 -6 53 -51 53 -50 -53 28 c-112
60 -122 102 -23 103 l24 0 -26 20 c-14 11 -46 29 -71 40 -44 18 -49 25 -93
117 -29 60 -63 114 -89 140 -44 44 -111 83 -141 83 -10 0 -40 11 -68 25 -58
30 -68 20 -32 -33 14 -20 28 -48 32 -62 4 -14 16 -42 28 -62 17 -32 18 -42 8
-83 -8 -33 -9 -57 -1 -85 11 -42 30 -54 30 -19 0 25 17 59 30 59 6 0 10 -6 10
-12 0 -7 19 -42 41 -78 23 -35 33 -58 23 -50 -29 22 -49 44 -61 64 -9 17 -11
16 -17 -8 -8 -34 -40 -34 -62 -1 -22 33 -29 106 -15 146 9 26 8 36 -3 48 -7 9
-19 32 -25 51 -6 19 -25 55 -41 80 -33 50 -36 60 -18 78 17 17 45 15 92 -7z
m-1223 -148 c98 -22 318 -22 415 -1 58 13 109 32 157 56 12 6 8 -83 -5 -100
-41 -53 -179 -88 -346 -89 -173 -1 -292 24 -349 75 -18 15 -23 30 -23 66 l0
47 38 -18 c21 -11 72 -27 113 -36z m569 -223 c-28 -52 -202 -100 -364 -100
-160 1 -336 51 -351 101 -10 31 -13 89 -5 89 4 0 28 -9 52 -20 154 -68 496
-63 638 10 l35 18 3 -39 c2 -21 -2 -47 -8 -59z m-393 -138 c7 -4 31 -50 54
-102 23 -52 43 -97 45 -99 2 -2 17 27 34 65 57 126 62 134 87 140 13 4 35 2
49 -5 24 -10 24 -13 24 -136 l0 -126 -27 3 -28 3 -3 100 -3 100 -40 -89 c-22
-49 -45 -96 -51 -103 -25 -30 -84 -9 -100 37 -3 8 -18 44 -34 80 l-29 64 -5
-94 c-5 -95 -5 -95 -32 -98 l-28 -3 0 125 c0 108 2 126 18 135 20 12 52 14 69
3z m883 -22 c0 -19 -7 -20 -96 -20 l-95 0 3 -32 3 -33 71 -5 c81 -6 114 -26
114 -69 0 -56 -33 -71 -149 -71 -74 0 -91 3 -91 15 0 12 15 15 79 15 94 0 111
5 111 34 0 34 -20 46 -77 46 -76 0 -113 21 -113 64 0 59 31 74 153 75 81 1 87
0 87 -19z m293 -11 c16 -20 18 -36 15 -108 -2 -56 -7 -86 -16 -89 -18 -6 -15
-22 11 -43 l22 -18 -31 -1 c-19 0 -38 8 -49 20 -15 16 -31 20 -89 20 -107 0
-116 10 -116 118 0 48 4 93 9 100 14 22 63 32 145 28 69 -2 82 -6 99 -27z
m107 -79 l5 -105 93 -3 c75 -2 92 -6 92 -18 0 -24 -202 -16 -226 8 -15 15 -19
63 -15 211 1 13 7 17 24 15 21 -3 22 -8 27 -108z m-890 -30 c0 -79 2 -80 91
-80 l59 0 0 76 0 75 28 -3 27 -3 3 -105 c4 -146 6 -144 -147 -148 -116 -4
-121 -3 -121 17 0 19 7 20 102 23 127 4 146 23 29 30 -51 3 -89 11 -105 22
-24 15 -26 22 -26 85 0 37 2 70 5 73 3 3 17 6 30 6 24 0 25 -3 25 -68z m294
-262 c-1 -23 3 -26 29 -26 51 2 74 -53 41 -100 -13 -18 -23 -22 -62 -20 l-47
3 -3 74 c-3 86 1 104 25 99 12 -2 18 -12 17 -30z m-568 -5 c13 -65 21 -70 28
-20 6 41 10 47 31 47 22 0 25 -6 32 -52 l7 -53 11 50 c9 41 15 51 34 53 17 3
22 0 19 -10 -3 -7 -13 -46 -23 -85 -16 -63 -22 -73 -41 -73 -19 0 -23 7 -30
53 -7 54 -11 51 -28 -26 -5 -22 -12 -28 -28 -25 -18 2 -25 16 -40 73 -22 89
-22 95 2 95 13 0 21 -9 26 -27z"/>
<path d="M1805 732 c-55 -5 -65 -16 -64 -76 2 -85 9 -101 52 -104 41 -4 46 4
20 24 -16 12 -15 13 13 14 17 0 37 -7 44 -15 7 -8 19 -15 27 -15 11 0 13 17
11 82 l-3 82 -30 6 c-16 3 -48 4 -70 2z"/>
</g>
</svg>
