<?xml version="1.0" standalone="no"?>
<!DOCTYPE svg PUBLIC "-//W3C//DTD SVG 20010904//EN"
 "http://www.w3.org/TR/2001/REC-SVG-20010904/DTD/svg10.dtd">
<svg version="1.0" xmlns="http://www.w3.org/2000/svg"
 width="259.000000pt" height="172.000000pt" viewBox="0 0 259.000000 172.000000"
 preserveAspectRatio="xMidYMid meet">
<metadata>
Created by potrace 1.16, written by Peter Selinger 2001-2019
</metadata>
<g transform="translate(0.000000,172.000000) scale(0.100000,-0.100000)"
fill="#000000" stroke="none">
<path d="M0 860 l0 -860 1295 0 1295 0 0 860 0 860 -1295 0 -1295 0 0 -860z
m1609 558 c0 -24 -13 -171 -27 -328 l-27 -284 -115 -33 c-63 -18 -128 -32
-145 -32 -16 0 -82 15 -145 33 l-115 33 -27 289 c-15 159 -27 306 -27 327 l-1
37 315 0 315 0 -1 -42z m-979 -288 c0 -5 5 -10 11 -10 5 0 7 5 4 10 -4 6 25
10 79 10 47 0 88 -4 91 -10 3 -5 0 -10 -7 -11 -7 0 -4 -4 7 -9 l20 -9 -20 0
c-11 -1 -16 -5 -10 -9 12 -8 13 -111 2 -129 -5 -7 -5 -17 -2 -23 3 -5 0 -10
-7 -10 -9 0 -9 -3 2 -10 19 -12 16 -13 -105 -10 -55 1 -93 6 -97 13 -6 9 -8 9
-8 0 0 -7 -5 -13 -10 -13 -6 0 -9 15 -8 33 l3 32 -57 3 c-56 3 -58 2 -58 -22
0 -56 0 -56 160 -56 l147 0 -4 -27 c-3 -26 -3 -27 6 -5 18 39 28 24 29 -43 0
-47 -3 -63 -11 -58 -7 4 -6 -1 2 -10 10 -12 10 -17 1 -17 -8 0 -9 -10 -5 -31
5 -22 3 -34 -6 -40 -23 -14 -29 -10 -28 19 1 16 3 20 6 10 2 -10 9 -18 14 -18
6 0 5 8 -1 20 -16 31 -28 24 -32 -19 -2 -28 0 -37 9 -34 7 3 13 0 13 -6 0 -6
6 -8 14 -5 11 4 13 0 9 -15 -3 -11 -9 -18 -14 -15 -5 3 -6 -2 -3 -10 3 -9 2
-16 -4 -16 -6 0 -18 -3 -28 -7 -12 -4 -15 -3 -10 5 4 7 2 12 -3 12 -6 0 -11
-4 -11 -10 0 -12 -27 -13 -32 -1 -1 4 -14 12 -28 16 l-25 7 22 -19 c25 -22 21
-33 -11 -33 -17 0 -18 2 -6 10 13 8 13 10 -1 10 -9 0 -19 -9 -22 -20 -3 -11
-13 -20 -24 -20 -17 1 -17 2 2 17 16 13 17 15 3 10 -28 -10 -23 31 5 44 l22
10 -22 -5 c-13 -2 -60 6 -105 18 l-83 23 -7 44 c-13 88 -13 89 36 89 43 0 45
-1 48 -31 3 -28 8 -34 46 -44 39 -12 42 -12 42 6 0 10 6 19 13 19 8 0 7 4 -3
10 -11 7 -11 10 -2 10 8 0 10 5 5 13 -16 26 -10 34 30 35 22 1 43 4 45 7 3 3
-56 5 -131 5 -75 0 -137 1 -138 3 0 1 -6 57 -12 125 l-13 122 186 2 c102 1
156 3 120 5 -35 2 -68 9 -72 16 -6 9 -8 9 -8 0 0 -7 -4 -13 -9 -13 -10 0 -9
12 3 48 7 22 46 32 46 12z m1650 -1 c0 -21 -40 -463 -45 -505 l-6 -42 -92 -26
c-121 -34 -120 -34 -115 13 l3 39 -83 23 c-46 12 -85 27 -87 33 -2 6 -6 37 -9
69 l-6 57 45 0 c44 0 45 0 45 -34 0 -29 4 -35 28 -40 15 -4 35 -9 45 -12 15
-5 17 2 17 55 l0 61 -45 0 c-32 0 -45 4 -45 14 0 7 -3 28 -6 45 l-6 31 51 0
51 0 0 35 0 35 -100 0 -100 0 0 45 0 45 100 0 100 0 0 35 0 35 130 0 c90 0
130 -3 130 -11z"/>
</g>
</svg>
