<?xml version="1.0" standalone="no"?>
<!DOCTYPE svg PUBLIC "-//W3C//DTD SVG 20010904//EN"
 "http://www.w3.org/TR/2001/REC-SVG-20010904/DTD/svg10.dtd">
<svg version="1.0" xmlns="http://www.w3.org/2000/svg"
 width="1280.000000pt" height="731.000000pt" viewBox="0 0 1280.000000 731.000000"
 preserveAspectRatio="xMidYMid meet">
<metadata>
Created by potrace 1.16, written by Peter Selinger 2001-2019
</metadata>
<g transform="translate(0.000000,731.000000) scale(0.100000,-0.100000)"
fill="#000000" stroke="none">
<path d="M2933 6021 c-365 -59 -665 -347 -738 -710 -26 -126 -17 -317 20 -431
54 -167 127 -283 251 -399 263 -245 653 -308 980 -157 251 116 429 333 496
603 30 121 30 313 -1 428 -85 320 -324 560 -646 647 -79 21 -281 32 -362 19z
m534 -275 c46 -50 47 -110 2 -160 -51 -59 -128 -61 -180 -5 -38 41 -46 87 -23
134 39 84 139 99 201 31z m-286 -96 c28 -8 39 -17 44 -38 9 -37 61 -89 103
-103 19 -6 53 -8 77 -5 l43 7 47 -66 c46 -64 87 -164 98 -236 l5 -37 -45 -6
c-114 -15 -143 -7 -143 42 0 9 -13 44 -29 77 -33 70 -101 137 -169 167 -76 34
-190 35 -275 3 -11 -5 -26 14 -56 68 -23 41 -41 77 -41 81 0 8 39 23 105 41
60 16 186 19 236 5z m-352 -149 c22 -38 41 -72 41 -75 0 -3 -19 -25 -43 -48
-71 -72 -92 -126 -92 -243 0 -90 3 -105 28 -153 15 -29 46 -70 67 -91 22 -21
40 -42 40 -46 0 -12 -82 -145 -90 -145 -4 0 -30 20 -58 45 -59 53 -113 131
-142 205 -21 52 -21 53 -2 74 32 34 44 65 44 111 0 46 -12 77 -44 111 -19 21
-19 22 2 75 12 30 35 75 52 101 29 46 131 148 148 148 4 0 26 -31 49 -69z
m-310 -255 c60 -32 81 -98 51 -161 -40 -84 -135 -98 -197 -30 -54 57 -43 142
23 186 35 23 84 25 123 5z m1075 -144 c10 -17 -23 -141 -54 -201 -17 -34 -46
-79 -65 -100 -33 -36 -37 -38 -84 -33 -39 3 -58 -1 -91 -19 -41 -23 -80 -73
-80 -102 0 -39 -193 -47 -305 -12 -82 25 -82 25 -49 89 51 98 50 97 114 80
112 -31 240 1 328 81 41 36 102 142 102 176 0 45 9 49 95 49 46 0 86 -4 89 -8z
m-154 -388 c63 -38 80 -128 35 -183 -51 -59 -131 -64 -185 -10 -99 100 28 264
150 193z"/>
<path d="M6555 4743 c-38 -14 -72 -28 -75 -33 -3 -4 -15 -12 -27 -19 -31 -16
-80 -91 -105 -159 -18 -51 -20 -79 -19 -276 0 -121 -3 -234 -9 -250 -5 -17
-17 -56 -26 -86 -16 -53 -55 -125 -92 -168 -9 -11 -24 -30 -32 -42 -8 -12 -20
-28 -26 -34 -22 -24 -94 -134 -137 -213 -76 -138 -134 -354 -113 -421 6 -19 8
-19 46 -4 91 35 168 -24 258 -198 71 -138 110 -189 143 -190 33 0 79 35 79 61
0 56 -95 181 -172 227 -16 9 -28 20 -28 24 0 4 -7 8 -15 8 -8 0 -39 24 -69 53
-46 44 -58 62 -72 115 -15 55 -16 73 -6 134 7 39 20 87 28 107 31 70 88 181
91 177 4 -4 -29 -78 -38 -86 -12 -10 -51 -135 -56 -182 -6 -50 9 -124 36 -170
22 -39 31 -35 31 15 0 58 24 166 49 220 12 25 21 48 21 51 0 5 42 98 85 191
36 78 82 223 93 295 9 61 8 67 -14 93 -35 41 -32 89 6 119 l30 23 -23 45 c-12
25 -22 63 -22 85 1 52 31 114 62 126 32 12 80 -13 95 -49 5 -15 14 -35 19 -44
5 -10 9 -29 9 -43 0 -23 4 -25 45 -25 45 0 45 0 45 36 0 51 35 121 70 139 48
25 88 19 125 -18 55 -55 69 -163 30 -224 -14 -20 -13 -24 11 -48 24 -24 26
-31 20 -78 -5 -43 -1 -66 24 -137 17 -47 37 -103 44 -125 14 -44 36 -93 101
-230 80 -168 95 -208 119 -318 6 -25 11 -28 38 -25 29 3 33 8 41 43 15 72 -5
182 -49 268 -19 35 -21 38 -70 95 -20 23 -30 40 -23 37 8 -3 23 -17 34 -31 10
-14 28 -36 40 -50 34 -40 84 -148 96 -206 5 -29 9 -80 8 -113 l-3 -60 54 -32
c74 -44 89 -62 98 -113 6 -36 12 -46 29 -48 31 -5 48 59 48 173 -1 102 -22
195 -66 285 -16 33 -29 63 -29 66 0 2 -4 10 -10 17 -5 7 -31 44 -56 82 -26 39
-50 72 -53 75 -4 3 -18 21 -31 40 -13 19 -27 37 -31 40 -17 13 -78 102 -114
165 l-39 70 -7 211 c-4 117 -11 220 -17 230 -5 11 -12 35 -15 55 -11 73 -67
166 -129 214 -88 68 -254 84 -383 38z m265 -41 c40 -19 61 -38 77 -67 13 -22
23 -42 23 -45 0 -3 -117 -7 -260 -8 -290 -4 -290 -4 -222 60 104 99 257 123
382 60z"/>
<path d="M1993 4083 l-33 -4 0 -429 0 -429 58 -12 c31 -7 100 -13 153 -13 87
-1 101 2 154 29 101 52 155 149 155 280 0 186 -101 305 -261 305 -36 0 -86 -7
-109 -15 -23 -8 -44 -15 -46 -15 -2 0 -4 70 -4 155 0 171 7 157 -67 148z m282
-383 c64 -31 90 -84 90 -190 0 -72 -4 -92 -25 -130 -36 -64 -86 -90 -176 -90
-108 0 -105 -7 -102 205 l3 180 45 23 c55 27 111 28 165 2z"/>
<path d="M3870 3971 l-25 -7 0 -299 c0 -165 4 -317 8 -337 9 -43 47 -92 86
-112 39 -20 117 -27 175 -14 81 17 86 21 74 69 -9 35 -14 40 -32 34 -12 -4
-47 -9 -78 -12 -112 -10 -128 23 -128 259 l0 157 113 3 112 3 0 40 0 40 -112
3 -113 3 0 89 0 90 -27 -1 c-16 -1 -39 -4 -53 -8z"/>
<path d="M8946 3909 c-14 -17 -26 -43 -26 -57 0 -38 41 -82 84 -89 30 -5 40
-1 67 26 28 28 31 37 26 73 -7 51 -37 77 -89 78 -28 0 -42 -7 -62 -31z"/>
<path d="M8120 3895 c0 -22 4 -25 40 -25 29 0 42 -5 50 -19 6 -13 10 -143 10
-355 0 -323 -1 -337 -20 -356 -11 -11 -24 -20 -30 -20 -5 0 -10 -7 -10 -15 0
-13 40 -15 300 -15 l300 0 0 44 c0 23 3 71 6 105 7 61 7 61 -19 61 -21 0 -28
-6 -33 -27 -22 -97 -23 -100 -55 -107 -17 -3 -85 -6 -150 -6 l-119 0 0 344 c0
265 3 347 13 353 6 4 30 10 52 13 32 4 40 9 40 25 0 19 -8 20 -187 23 l-188 2
0 -25z"/>
<path d="M3280 3797 l-55 -12 -3 -288 -2 -287 55 0 55 0 0 249 0 250 55 6
c107 14 171 -10 197 -73 7 -16 13 -113 16 -229 l4 -203 50 0 49 0 -3 228 c-3
260 -9 282 -87 337 -41 29 -47 30 -159 32 -65 1 -142 -4 -172 -10z"/>
<path d="M1327 3793 c-11 -10 -8 -321 3 -393 15 -88 52 -147 114 -179 44 -23
60 -25 150 -23 56 1 126 7 156 14 l55 13 3 288 2 287 -55 0 -55 0 0 -250 0
-249 -35 -7 c-61 -11 -152 0 -176 22 -48 44 -53 67 -57 282 l-4 202 -47 0
c-26 0 -51 -3 -54 -7z"/>
<path d="M2590 3612 c0 -270 26 -349 129 -395 54 -24 178 -27 284 -7 l67 12 0
290 0 289 -52 -3 -53 -3 -2 -245 c-2 -279 5 -258 -96 -259 -74 -1 -121 19
-144 61 -15 28 -18 63 -21 241 l-3 207 -55 0 -54 0 0 -188z"/>
<path d="M4270 3616 c0 -211 9 -275 48 -331 43 -63 106 -89 212 -88 48 0 117
6 153 13 l67 12 0 289 0 289 -55 0 -55 0 0 -249 0 -249 -22 -6 c-41 -11 -128
-6 -163 8 -62 26 -70 55 -73 289 l-3 207 -55 0 -54 0 0 -184z"/>
<path d="M9055 3662 c-15 -13 -127 -42 -163 -42 -27 0 -32 -4 -32 -24 0 -21 5
-25 38 -28 l37 -3 0 -215 0 -215 -37 -3 c-30 -3 -38 -7 -38 -23 0 -18 8 -19
161 -19 147 0 160 1 157 18 -2 12 -14 18 -41 20 -20 2 -38 4 -39 5 -1 1 -5
121 -8 266 -5 255 -9 286 -35 263z"/>
<path d="M9405 3644 c-38 -13 -87 -26 -107 -29 -32 -5 -38 -10 -38 -30 0 -22
5 -25 34 -25 22 0 36 -6 40 -16 3 -9 6 -98 6 -199 0 -101 -3 -190 -6 -199 -4
-10 -18 -16 -40 -16 -27 0 -34 -4 -34 -20 0 -19 7 -20 161 -20 147 0 160 1
157 18 -2 11 -14 18 -38 20 -19 2 -38 9 -42 15 -4 7 -8 89 -8 183 0 181 1 186
52 217 34 21 58 21 102 1 57 -28 61 -45 61 -260 l0 -194 118 0 c107 0 118 2
115 18 -2 12 -14 18 -41 20 -29 3 -38 8 -42 25 -2 12 -6 108 -7 212 -4 226 -8
239 -92 279 -30 14 -70 26 -88 26 -34 0 -106 -39 -151 -81 l-22 -20 -3 50 c-2
28 -6 50 -10 50 -4 -1 -38 -12 -77 -25z"/>
<path d="M10205 3661 c-12 -10 -127 -40 -170 -43 -23 -2 -31 -9 -33 -25 -3
-20 1 -23 30 -23 56 0 58 -8 58 -186 0 -217 18 -264 114 -301 72 -27 118 -13
201 61 22 20 42 36 45 36 3 0 4 -20 2 -45 l-4 -45 116 0 c109 0 116 1 116 20
0 16 -7 20 -34 20 -22 0 -36 6 -40 16 -3 9 -6 130 -6 271 0 239 -1 255 -17
248 -47 -19 -151 -45 -180 -45 -29 0 -33 -3 -33 -25 0 -22 4 -25 35 -25 48 0
55 -22 55 -166 0 -86 -4 -123 -16 -147 -32 -63 -74 -85 -138 -73 -56 11 -66
51 -66 270 0 209 -5 236 -35 207z"/>
<path d="M10900 3661 c-8 -4 -48 -14 -87 -21 -40 -7 -73 -15 -73 -17 0 -19 25
-43 44 -43 26 0 82 -51 92 -84 4 -11 24 -48 45 -83 22 -35 39 -67 39 -71 0 -4
-18 -27 -40 -52 -22 -25 -40 -48 -40 -52 0 -16 -94 -107 -113 -110 -12 -2 -23
-11 -25 -20 -3 -16 5 -18 61 -18 53 0 66 3 70 18 5 21 116 172 125 172 4 0 32
-43 62 -95 l55 -95 97 0 c79 0 98 3 98 14 0 8 -13 23 -29 32 -27 16 -107 128
-146 204 -9 19 -24 42 -31 51 -13 14 -5 27 62 105 44 52 89 95 110 104 20 9
34 22 34 33 0 14 -9 17 -58 17 -66 0 -68 -1 -141 -112 -50 -76 -52 -76 -100 7
-27 47 -84 124 -91 124 -3 0 -12 -3 -20 -8z"/>
<path d="M7190 3153 c-38 -16 -60 -59 -60 -117 0 -25 5 -48 10 -51 6 -3 10
-14 10 -23 0 -10 13 -32 29 -50 25 -26 37 -32 72 -32 49 0 109 27 157 69 63
56 29 141 -68 172 -19 6 -39 15 -45 19 -14 11 -87 20 -105 13z"/>
<path d="M6941 2566 c-7 -8 -37 -24 -69 -37 -31 -12 -63 -27 -71 -33 -8 -7
-66 -11 -145 -11 -124 0 -134 1 -184 28 -30 16 -56 26 -58 24 -3 -2 0 -17 6
-33 7 -16 10 -58 8 -94 -3 -76 -15 -73 147 -45 85 15 114 16 192 6 50 -6 112
-11 137 -11 l46 0 0 59 c0 33 4 70 9 83 19 53 22 78 7 78 -7 0 -19 -6 -25 -14z"/>
</g>
</svg>
