<?xml version="1.0" standalone="no"?>
<!DOCTYPE svg PUBLIC "-//W3C//DTD SVG 20010904//EN"
 "http://www.w3.org/TR/2001/REC-SVG-20010904/DTD/svg10.dtd">
<svg version="1.0" xmlns="http://www.w3.org/2000/svg"
 width="1440.000000pt" height="900.000000pt" viewBox="0 0 1440.000000 900.000000"
 preserveAspectRatio="xMidYMid meet">
<metadata>
Created by potrace 1.16, written by Peter Selinger 2001-2019
</metadata>
<g transform="translate(0.000000,900.000000) scale(0.100000,-0.100000)"
fill="#000000" stroke="none">
<path d="M0 4500 l0 -4500 7200 0 7200 0 0 4500 0 4500 -7200 0 -7200 0 0
-4500z m8810 1006 l0 -493 93 48 c171 90 343 130 464 109 139 -24 274 -124
329 -242 l29 -63 3 -562 3 -563 -116 0 -115 0 0 483 c0 520 -2 542 -54 645
-31 61 -103 127 -152 141 -126 35 -318 -20 -428 -122 l-46 -42 -3 -555 -2
-555 -117 -3 -118 -3 0 1104 0 1104 108 30 c59 17 110 32 115 32 4 1 7 -221 7
-493z m4290 134 c0 -17 -7 -20 -50 -20 l-50 0 0 -128 c0 -71 -3 -131 -6 -135
-3 -3 -12 -3 -20 0 -11 4 -14 33 -14 134 l0 129 -50 0 c-43 0 -50 3 -50 20 0
19 7 20 120 20 113 0 120 -1 120 -20z m141 -107 l42 -127 45 127 c40 115 47
127 68 127 l24 0 0 -155 c0 -131 -2 -155 -15 -155 -12 0 -15 20 -15 117 0 67
-4 113 -9 108 -5 -6 -23 -53 -41 -105 -34 -98 -51 -127 -68 -116 -5 3 -27 55
-48 116 l-39 111 -5 -113 c-4 -92 -8 -113 -20 -113 -13 0 -15 25 -18 153 l-3
152 30 0 c29 0 30 -3 72 -127z m-5211 -133 l0 -230 135 0 135 0 0 -80 0 -80
-135 0 -136 0 3 -508 3 -508 27 -41 c33 -50 101 -85 175 -91 l54 -5 -3 -70 -3
-71 -50 2 c-190 11 -353 91 -407 199 l-23 48 -5 525 -5 525 -77 3 -78 3 0 74
0 75 75 0 75 0 2 193 3 192 110 37 c61 20 113 37 118 37 4 1 7 -102 7 -229z
m2791 -229 c86 -27 172 -84 237 -157 199 -221 235 -670 80 -984 -103 -207
-289 -319 -531 -320 -404 -1 -648 295 -649 789 -1 108 3 139 26 214 44 147
111 258 210 349 43 39 146 97 206 117 101 32 306 28 421 -8z m1499 8 c117 -37
211 -116 258 -217 l27 -57 3 -582 2 -583 -120 0 -120 0 0 528 0 529 -30 59
c-49 99 -128 161 -238 186 -112 25 -303 -21 -374 -89 l-28 -27 0 -593 0 -593
-115 0 -115 0 0 303 c0 166 -2 440 -5 608 l-5 307 49 44 c49 45 139 98 221
131 166 69 449 90 590 46z m-6865 6 c230 -48 392 -224 445 -485 25 -121 27
-332 4 -451 -52 -275 -213 -480 -419 -534 -133 -34 -326 -4 -487 76 -32 16
-60 29 -63 29 -3 0 -5 -184 -5 -410 0 -225 -2 -410 -4 -410 -1 0 -55 25 -120
55 l-116 55 0 927 1 928 52 42 c58 46 178 114 247 139 140 50 333 67 465 39z
m975 -535 c0 -509 1 -531 20 -584 27 -70 86 -129 156 -156 43 -16 78 -20 163
-20 174 0 282 29 349 93 l33 32 -7 578 -7 577 122 0 122 0 -3 -807 c-4 -793
-4 -809 -25 -885 -51 -181 -122 -272 -267 -343 -99 -49 -224 -88 -355 -110
-125 -22 -128 -22 -140 23 -27 97 -26 102 6 102 55 0 188 40 279 85 114 56
188 126 235 221 33 67 34 71 37 221 l4 152 -84 -29 c-317 -110 -537 -110 -708
0 -66 42 -106 90 -144 170 l-31 65 -3 542 -3 542 53 15 c29 8 76 21 103 29 28
8 60 15 73 16 l22 1 0 -530z m-2846 486 c185 -91 276 -314 276 -677 0 -350
-95 -564 -290 -658 l-55 -26 -550 -5 -550 -5 0 -45 0 -45 349 -5 348 -5 0
-191 c0 -219 -4 -236 -79 -304 -105 -97 -319 -150 -605 -150 -295 0 -509 59
-622 172 -88 88 -88 88 -84 555 3 355 6 403 22 445 24 64 95 141 159 173 100
48 158 54 587 53 438 -1 460 1 554 64 59 38 102 97 135 181 23 58 25 77 29
285 l4 224 156 -4 c150 -3 160 -4 216 -32z"/>
<path d="M10490 5021 c-127 -41 -213 -145 -256 -306 -26 -97 -26 -364 0 -485
24 -115 73 -218 130 -274 64 -61 133 -86 241 -86 196 0 302 94 357 316 30 120
33 413 5 514 -40 148 -109 245 -212 298 -42 21 -66 26 -145 29 -52 1 -106 -1
-120 -6z"/>
<path d="M5195 5034 c-76 -12 -227 -76 -253 -107 -9 -11 -12 -125 -10 -463 l3
-448 67 -42 c91 -56 191 -86 281 -85 131 0 218 42 281 134 70 102 96 223 96
440 0 307 -72 482 -222 547 -49 21 -178 34 -243 24z"/>
<path d="M2748 3474 c-36 -19 -58 -63 -58 -115 0 -33 6 -47 33 -74 43 -43 79
-52 131 -34 92 32 114 140 42 206 -29 27 -44 33 -78 33 -24 -1 -55 -7 -70 -16z"/>
</g>
</svg>
