<?xml version="1.0" standalone="no"?>
<!DOCTYPE svg PUBLIC "-//W3C//DTD SVG 20010904//EN"
 "http://www.w3.org/TR/2001/REC-SVG-20010904/DTD/svg10.dtd">
<svg version="1.0" xmlns="http://www.w3.org/2000/svg"
 width="977.000000pt" height="616.000000pt" viewBox="0 0 977.000000 616.000000"
 preserveAspectRatio="xMidYMid meet">
<metadata>
Created by potrace 1.16, written by Peter Selinger 2001-2019
</metadata>
<g transform="translate(0.000000,616.000000) scale(0.100000,-0.100000)"
fill="#000000" stroke="none">
<path d="M4972 4518 c-9 -9 -12 -121 -12 -440 0 -361 -2 -429 -14 -434 -8 -3
-51 16 -95 41 -57 33 -88 45 -104 41 -13 -3 -90 -44 -172 -92 -83 -48 -183
-105 -223 -128 -40 -22 -100 -59 -135 -81 l-62 -40 -3 -335 c-1 -184 0 -344 2
-355 6 -23 11 -26 337 -214 135 -77 255 -141 266 -141 11 0 130 63 264 141
134 77 263 152 286 165 24 14 47 33 53 44 6 12 10 293 10 814 l0 795 -22 25
c-20 22 -339 206 -357 206 -4 0 -12 -5 -19 -12z m-108 -1314 l96 -56 0 -114 0
-113 -97 -57 c-53 -32 -102 -57 -108 -57 -6 0 -54 25 -108 57 l-97 57 0 107
c0 59 4 112 8 118 9 14 183 114 198 114 6 0 55 -25 108 -56z"/>
<path d="M1305 3644 c-88 -51 -213 -124 -278 -161 -66 -37 -123 -76 -128 -85
-5 -10 -8 -205 -7 -460 3 -418 4 -443 21 -446 23 -5 351 182 372 211 12 18 15
60 15 238 0 193 2 217 18 231 34 30 161 98 182 98 21 0 148 -68 183 -98 15
-14 17 -38 17 -237 0 -162 3 -225 13 -237 17 -23 344 -208 366 -208 10 0 22 7
25 16 3 9 6 210 6 448 0 331 -3 436 -12 448 -7 9 -139 88 -294 177 -197 113
-289 161 -310 160 -17 0 -92 -38 -189 -95z"/>
<path d="M6335 3719 c-146 -78 -533 -305 -547 -321 -16 -18 -18 -50 -18 -357
0 -337 0 -338 23 -358 43 -39 560 -326 586 -326 14 1 104 44 199 98 143 80
172 101 172 119 0 23 -1 24 -482 299 -55 31 -88 57 -92 71 -10 35 -7 186 4
206 5 10 51 42 102 71 l91 52 71 -38 c39 -21 86 -49 104 -62 l32 -24 0 -94 c0
-83 2 -94 19 -100 20 -6 354 182 378 213 17 23 17 201 0 224 -11 14 -102 68
-508 304 -42 24 -80 44 -85 44 -5 0 -27 -10 -49 -21z"/>
</g>
</svg>
